<?xml version="1.0" encoding="UTF-8"?>
<svg xmlns="http://www.w3.org/2000/svg" xmlns:xlink="http://www.w3.org/1999/xlink" version="1.2" >
<font id="MADE Evolve Sans">
<font-face  font-family="MADE Evolve Sans" units-per-em="1000" ascent="750" descent="-218" font-style="normal" font-weight="400" font-stretch="normal" cap-height="700" x-height="482" underline-position="-75" underline-thickness="50" />
<missing-glyph  horiz-adv-x="280" d="" />
<glyph glyph-name="NULL" d="" />
<glyph glyph-name="CR" unicode="&#xd;" horiz-adv-x="250" d="" />
<glyph glyph-name="space" unicode="&#x20;" horiz-adv-x="280" d="" />
<glyph glyph-name="exclam" unicode="&#x21;" horiz-adv-x="220" d="M137 173 L146 700 L74 700 L82 173 L137 173 Z M110 68 C88 68 70 50 70 28 C70 5 88 -13 110 -13 C132 -13 150 5 150 28 C150 50 132 68 110 68 L110 68 Z " />
<glyph glyph-name="quotedbl" unicode="&#x22;" horiz-adv-x="275" d="M58 538 L100 538 L118 706 L40 706 L58 538 Z M175 538 L217 538 L235 706 L157 706 L175 538 Z " />
<glyph glyph-name="numbersign" unicode="&#x23;" horiz-adv-x="746" d="M701 418 L716 490 L577 490 L621 700 L547 700 L503 490 L311 490 L355 700 L281 700 L237 490 L91 490 L76 418 L222 418 L191 269 L45 269 L30 197 L175 197 L134 0 L207 0 L249 197 L442 197 L400 0 L473 0 L515 197 L655 197 L670 269 L530 269 L562 418 L701 418 Z M457 269 L264 269 L296 418 L488 418 L457 269 Z " />
<glyph glyph-name="dollar" unicode="&#x24;" horiz-adv-x="605" d="M570 195 C570 322 457 361 339 383 L339 631 C400 622 458 594 473 533 L541 556 C519 632 440 691 339 703 L339 801 L266 801 L266 705 C115 694 52 605 53 509 C53 390 144 348 266 323 L266 68 C185 77 127 113 104 169 L35 146 C61 75 137 8 266 -5 L266 -101 L339 -101 L339 -7 C458 2 570 69 570 195 L570 195 Z M125 509 C125 584 175 625 266 632 L266 396 C164 418 125 451 125 509 L125 509 Z M339 66 L339 309 C447 287 498 262 498 195 C498 107 411 73 339 66 L339 66 Z " />
<glyph glyph-name="percent" unicode="&#x25;" horiz-adv-x="734" d="M544 700 L107 0 L192 0 L630 700 L544 700 Z M333 554 C333 641 265 706 182 706 C98 706 30 641 30 554 C30 468 98 403 182 403 C265 403 333 468 333 554 L333 554 Z M97 554 C97 604 135 639 182 639 C228 639 266 604 266 554 C266 504 228 469 182 469 C135 469 97 504 97 554 L97 554 Z M553 295 C469 295 401 231 401 144 C401 57 469 -7 553 -7 C636 -7 704 57 704 144 C704 231 636 295 553 295 L553 295 Z M553 59 C506 59 468 94 468 144 C468 194 506 229 553 229 C599 229 637 194 637 144 C637 94 599 59 553 59 L553 59 Z " />
<glyph glyph-name="ampersand" unicode="&#x26;" horiz-adv-x="680" d="M512 160 C535 195 564 247 583 280 L500 280 C486 255 479 242 460 214 C403 274 344 339 296 397 C346 436 390 482 405 540 C429 634 368 717 273 717 C164 717 94 614 135 507 C145 482 165 448 194 410 C139 369 86 322 60 256 C30 182 35 116 70 63 C111 1 190 -19 265 -13 C346 -6 413 39 466 104 C524 45 556 13 570 0 L670 0 C640 29 561 110 512 160 L512 160 Z M273 645 C321 645 349 604 335 553 C325 517 292 485 251 453 C227 485 210 512 203 532 C185 580 210 645 273 645 L273 645 Z M260 59 C198 54 156 78 139 104 C116 137 112 177 130 227 C148 276 190 317 238 353 C292 288 355 219 415 156 C375 106 326 64 260 59 L260 59 Z " />
<glyph glyph-name="quotesingle" unicode="&#x27;" horiz-adv-x="158" d="M58 538 L100 538 L118 706 L40 706 L58 538 Z " />
<glyph glyph-name="parenleft" unicode="&#x28;" horiz-adv-x="300" d="M290 711 L234 757 C137 641 77 473 71 298 C65 115 116 -53 215 -176 L271 -131 C92 92 101 485 290 711 L290 711 Z " />
<glyph glyph-name="parenright" unicode="&#x29;" horiz-adv-x="299" d="M85 757 L28 712 C208 489 199 96 10 -130 L65 -176 C163 -60 222 108 228 283 C235 466 184 635 85 757 L85 757 Z " />
<glyph glyph-name="asterisk" unicode="&#x2a;" horiz-adv-x="355" d="M325 594 L289 657 L201 592 L214 700 L141 700 L154 592 L66 657 L30 594 L130 551 L30 508 L66 445 L154 510 L141 402 L214 402 L201 510 L289 445 L325 508 L225 551 L325 594 Z " />
<glyph glyph-name="plus" unicode="&#x2b;" horiz-adv-x="528" d="M458 342 L300 342 L300 500 L228 500 L228 342 L70 342 L70 270 L228 270 L228 112 L300 112 L300 270 L458 270 L458 342 Z " />
<glyph glyph-name="comma" unicode="&#x2c;" horiz-adv-x="166" d="M60 52 L20 -116 L67 -116 L136 52 L60 52 Z " />
<glyph glyph-name="hyphen" unicode="&#x2d;" horiz-adv-x="470" d="M70 342 L70 270 L400 270 L400 342 L70 342 Z " />
<glyph glyph-name="period" unicode="&#x2e;" horiz-adv-x="191" d="M100 68 C78 68 60 50 60 28 C60 5 78 -13 100 -13 C123 -13 141 5 141 28 C141 50 123 68 100 68 L100 68 Z " />
<glyph glyph-name="slash" unicode="&#x2f;" horiz-adv-x="386" d="M300 751 L0 -154 L76 -154 L376 751 L300 751 Z " />
<glyph glyph-name="zero" unicode="0" horiz-adv-x="531" d="M266 704 C72 704 50 448 50 349 C50 251 80 -8 266 -8 C452 -8 481 251 481 349 C481 448 459 704 266 704 L266 704 Z M266 64 C175 64 125 179 125 349 C125 520 170 632 266 632 C361 632 406 520 406 349 C406 179 357 64 266 64 L266 64 Z " />
<glyph glyph-name="one" unicode="1" horiz-adv-x="338" d="M176 700 C166 631 99 542 40 526 L40 471 C80 475 146 510 176 541 L176 0 L248 0 L248 700 L176 700 Z " />
<glyph glyph-name="two" unicode="2" horiz-adv-x="489" d="M439 72 L139 72 C161 139 199 189 254 245 C339 330 397 397 414 490 C438 627 360 706 239 706 C122 706 65 609 53 534 L117 519 C135 592 174 636 239 636 C311 636 358 581 335 489 C319 425 279 375 203 296 C121 210 50 119 50 0 L439 0 L439 72 Z " />
<glyph glyph-name="three" unicode="3" horiz-adv-x="510" d="M344 382 C397 407 440 470 440 537 C440 629 375 706 253 706 C160 706 85 650 63 557 L129 544 C148 606 187 637 253 637 C322 637 369 603 369 533 C369 471 323 411 250 411 C227 411 211 411 191 411 L191 344 C212 344 224 344 247 344 C343 344 395 283 395 200 C395 121 341 61 251 61 C190 61 141 92 118 134 L50 100 C86 35 168 -7 251 -7 C389 -7 470 88 470 202 C470 283 421 358 344 382 L344 382 Z " />
<glyph glyph-name="four" unicode="4" horiz-adv-x="571" d="M521 248 L427 248 L427 700 L355 700 L50 248 L50 175 L355 175 L355 0 L427 0 L427 175 L521 175 L521 248 Z M137 248 L355 571 L355 248 L137 248 Z " />
<glyph glyph-name="five" unicode="5" horiz-adv-x="506" d="M244 458 C208 455 176 441 150 421 L183 627 L433 627 L433 700 L126 700 L67 332 L134 321 C149 349 187 388 244 388 C326 388 382 331 381 226 C379 119 317 60 235 60 C177 60 121 100 99 139 L38 101 C73 47 143 -7 235 -7 C383 -7 456 105 456 227 C456 361 374 468 244 458 L244 458 Z " />
<glyph glyph-name="six" unicode="6" horiz-adv-x="539" d="M259 430 C190 420 146 379 123 347 C133 489 181 636 300 636 C360 636 392 593 404 577 L455 626 C442 640 391 704 297 706 C190 708 79 622 54 379 C26 102 158 -7 276 -7 C406 -7 489 95 489 223 C489 382 370 445 259 430 L259 430 Z M257 63 C166 80 131 164 126 256 C152 313 214 361 276 361 C352 361 417 318 417 221 C417 131 350 45 257 63 L257 63 Z " />
<glyph glyph-name="seven" unicode="7" horiz-adv-x="484" d="M40 700 L40 627 L365 627 L85 0 L164 0 L444 627 L444 700 L40 700 Z " />
<glyph glyph-name="eight" unicode="8" horiz-adv-x="539" d="M363 381 C424 410 457 468 457 529 C457 605 410 706 270 706 C129 706 82 605 82 529 C82 468 115 410 177 381 C99 353 40 286 40 195 C40 104 103 -7 270 -7 C436 -7 499 104 499 195 C499 286 440 353 363 381 L363 381 Z M150 530 C150 601 202 640 270 640 C338 640 390 601 390 530 C390 471 351 414 270 414 C189 414 150 471 150 530 L150 530 Z M270 61 C183 62 113 112 113 197 C113 283 179 341 270 341 C361 341 426 283 426 197 C426 112 356 62 270 61 L270 61 Z " />
<glyph glyph-name="nine" unicode="9" horiz-adv-x="539" d="M266 706 C136 706 50 603 50 476 C50 317 169 253 280 269 C349 278 393 319 416 352 C406 209 357 62 239 62 C179 62 147 101 134 116 L84 72 C97 58 148 -6 242 -7 C349 -9 460 77 485 319 C513 597 384 706 266 706 L266 706 Z M263 338 C187 338 122 380 122 478 C122 567 189 654 282 636 C373 618 408 534 413 443 C387 385 325 338 263 338 L263 338 Z " />
<glyph glyph-name="colon" unicode="&#x3a;" horiz-adv-x="210" d="M90 410 C112 410 130 428 130 450 C130 472 112 490 90 490 C68 490 50 472 50 450 C50 428 68 410 90 410 L90 410 Z M90 68 C68 68 50 50 50 28 C50 5 68 -13 90 -13 C112 -13 130 5 130 28 C130 50 112 68 90 68 L90 68 Z " />
<glyph glyph-name="semicolon" unicode="&#x3b;" horiz-adv-x="210" d="M14 -116 L61 -116 L130 52 L55 52 L14 -116 Z M90 410 C112 410 130 428 130 450 C130 472 112 490 90 490 C68 490 50 472 50 450 C50 428 68 410 90 410 L90 410 Z " />
<glyph glyph-name="less" unicode="&#x3c;" horiz-adv-x="483" d="M413 507 L70 341 L70 260 L413 94 L413 174 L153 301 L413 427 L413 507 Z " />
<glyph glyph-name="equal" unicode="&#x3d;" horiz-adv-x="528" d="M70 420 L70 347 L458 347 L458 420 L70 420 Z M70 184 L458 184 L458 256 L70 256 L70 184 Z " />
<glyph glyph-name="greater" unicode="&#x3e;" horiz-adv-x="483" d="M70 507 L70 427 L331 301 L70 174 L70 94 L413 260 L413 341 L70 507 Z " />
<glyph glyph-name="question" unicode="&#x3f;" horiz-adv-x="445" d="M192 68 C170 68 152 50 152 28 C152 5 170 -13 192 -13 C214 -13 232 5 232 28 C232 50 214 68 192 68 L192 68 Z M223 706 C121 706 55 623 40 534 L102 519 C115 579 160 636 223 636 C293 636 341 606 334 519 C330 462 287 406 245 357 C200 303 156 247 154 173 L224 173 C225 228 264 274 305 323 C351 377 398 441 404 515 C413 648 319 706 223 706 L223 706 Z " />
<glyph glyph-name="at" unicode="&#x40;" horiz-adv-x="936" d="M879 265 C862 467 704 633 468 633 C255 633 91 502 57 293 C31 136 84 5 194 -84 C317 -183 523 -189 643 -130 L619 -71 C481 -129 335 -114 234 -34 C141 39 98 149 119 282 C155 498 324 569 468 569 C666 569 798 454 816 259 C823 183 812 108 780 73 C753 43 722 44 701 62 C670 89 668 169 668 223 L668 448 L604 448 L604 396 C567 433 517 455 457 455 C331 455 240 356 240 230 C240 104 331 4 457 4 C526 4 583 34 620 82 C627 56 639 33 656 17 C708 -33 786 -12 824 30 C869 79 887 171 879 265 L879 265 Z M457 68 C366 68 306 139 306 230 C306 321 366 392 457 392 C548 392 602 321 602 230 C602 139 548 68 457 68 L457 68 Z " />
<glyph glyph-name="A" unicode="A" horiz-adv-x="655" d="M545 0 L625 0 L360 700 L294 700 L30 0 L110 0 L186 203 L469 203 L545 0 Z M213 275 L327 585 L442 275 L213 275 Z " />
<glyph glyph-name="B" unicode="B" horiz-adv-x="593" d="M434 379 C481 410 508 459 508 517 C508 618 449 700 309 700 L65 700 L65 0 L326 0 C479 0 548 94 548 206 C548 282 506 347 434 379 L434 379 Z M304 628 C403 628 430 578 430 517 C430 456 396 406 297 406 L138 406 L138 627 L304 628 Z M324 72 L138 72 L138 340 L320 340 C424 340 470 278 470 206 C470 133 423 72 324 72 L324 72 Z " />
<glyph glyph-name="C" unicode="C" horiz-adv-x="709" d="M390 63 C232 63 119 191 119 349 C119 507 232 635 390 635 C486 635 567 587 615 515 L679 546 C619 643 514 706 390 706 C193 706 45 546 45 349 C45 152 193 -8 390 -8 C514 -8 619 56 679 152 L615 184 C567 111 486 63 390 63 L390 63 Z " />
<glyph glyph-name="D" unicode="D" horiz-adv-x="673" d="M280 700 L65 700 L65 0 L280 0 C495 0 633 156 633 349 C633 542 498 700 280 700 L280 700 Z M274 72 C206 72 164 72 137 72 L137 628 L275 628 C449 628 556 503 556 349 C556 196 453 72 274 72 L274 72 Z " />
<glyph glyph-name="E" unicode="E" horiz-adv-x="575" d="M132 72 L132 314 L488 314 L488 386 L132 386 L132 628 L519 628 L519 700 L60 700 L60 0 L525 0 L525 72 L132 72 Z " />
<glyph glyph-name="F" unicode="F" horiz-adv-x="534" d="M519 628 L519 700 L60 700 L60 0 L132 0 L132 314 L452 314 L452 386 L132 386 L132 628 L519 628 Z " />
<glyph glyph-name="G" unicode="G" horiz-adv-x="715" d="M670 359 L379 359 L379 287 L598 287 L598 168 C551 107 469 63 381 63 C223 63 109 191 109 349 C109 507 223 635 381 635 C477 635 557 587 606 515 L670 546 C609 643 505 706 381 706 C184 706 35 546 35 349 C35 152 184 -8 381 -8 C505 -8 610 56 670 152 L670 359 Z " />
<glyph glyph-name="H" unicode="H" horiz-adv-x="660" d="M523 700 L523 386 L137 386 L137 700 L65 700 L65 0 L137 0 L137 314 L523 314 L523 0 L595 0 L595 700 L523 700 Z " />
<glyph glyph-name="I" unicode="I" horiz-adv-x="202" d="M65 700 L65 0 L137 0 L137 700 L65 700 Z " />
<glyph glyph-name="J" unicode="J" horiz-adv-x="407" d="M347 700 L274 700 C274 700 274 282 274 185 C274 101 237 64 178 64 C128 64 92 89 74 110 L21 68 C38 41 99 -8 181 -8 C291 -8 347 64 347 187 C347 306 347 700 347 700 L347 700 Z " />
<glyph glyph-name="K" unicode="K" horiz-adv-x="594" d="M496 0 L584 0 L294 407 L558 700 L462 700 L138 342 L138 700 L65 700 L65 0 L138 0 L138 234 L244 352 L496 0 Z " />
<glyph glyph-name="L" unicode="L" horiz-adv-x="500" d="M132 72 L132 700 L60 700 L60 0 L480 0 L480 72 L132 72 Z " />
<glyph glyph-name="M" unicode="M" horiz-adv-x="817" d="M685 700 L408 264 L132 700 L65 700 L65 0 L138 0 L138 561 L383 175 L432 175 L679 561 L679 0 L752 0 L752 700 L685 700 Z " />
<glyph glyph-name="N" unicode="N" horiz-adv-x="662" d="M525 700 L525 134 L131 700 L65 700 L65 0 L137 0 L137 568 L531 0 L597 0 L597 700 L525 700 Z " />
<glyph glyph-name="O" unicode="O" horiz-adv-x="769" d="M385 706 C188 706 45 546 45 349 C45 152 188 -8 385 -8 C582 -8 724 152 724 349 C724 546 582 706 385 706 L385 706 Z M385 63 C227 63 119 191 119 349 C119 507 227 635 385 635 C542 635 650 507 650 349 C650 191 542 63 385 63 L385 63 Z " />
<glyph glyph-name="P" unicode="P" horiz-adv-x="587" d="M328 700 L65 700 L65 0 L138 0 L138 266 L328 266 C455 266 547 365 547 483 C547 601 459 700 328 700 L328 700 Z M328 338 L138 338 L138 628 L328 628 C417 628 472 561 472 483 C472 405 416 338 328 338 L328 338 Z " />
<glyph glyph-name="Q" unicode="Q" horiz-adv-x="758" d="M718 349 C718 546 576 706 379 706 C182 706 40 546 40 349 C40 152 182 -7 379 -7 C457 -7 527 18 582 60 L661 -19 L713 32 L634 110 C687 174 718 258 718 349 L718 349 Z M379 64 C221 64 114 192 114 349 C114 507 221 635 379 635 C537 635 644 507 644 349 C644 278 622 212 583 162 L505 240 L454 189 L531 112 C489 81 438 64 379 64 L379 64 Z " />
<glyph glyph-name="R" unicode="R" horiz-adv-x="592" d="M564 0 L406 280 C491 311 547 391 547 483 C547 601 458 700 327 700 L65 700 L65 0 L137 0 L137 266 L327 266 C328 266 330 266 331 266 L481 0 L564 0 Z M137 628 L327 628 C416 628 472 561 472 483 C472 405 416 338 327 338 L137 338 L137 628 Z " />
<glyph glyph-name="S" unicode="S" horiz-adv-x="596" d="M309 388 C177 411 120 439 120 509 C120 592 188 635 297 635 C374 635 450 608 468 533 L537 557 C511 642 420 707 297 707 C125 707 47 612 48 509 C49 380 160 342 297 317 C434 292 493 271 493 195 C493 97 383 64 309 64 C203 64 127 103 99 170 L30 146 C59 67 153 -8 311 -8 C439 -8 566 60 566 195 C566 333 438 367 309 388 L309 388 Z " />
<glyph glyph-name="T" unicode="T" horiz-adv-x="547" d="M527 700 L20 700 L20 628 L238 628 L238 0 L310 0 L310 628 L527 628 L527 700 Z " />
<glyph glyph-name="U" unicode="U" horiz-adv-x="640" d="M508 700 C508 700 508 404 508 275 C508 138 427 64 323 64 C219 64 132 135 132 275 C132 385 132 700 132 700 L60 700 C60 700 60 422 60 278 C60 78 179 -8 323 -8 C467 -8 580 82 580 281 C580 427 580 700 580 700 L508 700 Z " />
<glyph glyph-name="V" unicode="V" horiz-adv-x="601" d="M521 700 L301 115 L81 700 L0 700 L268 0 L334 0 L601 700 L521 700 Z " />
<glyph glyph-name="W" unicode="W" horiz-adv-x="979" d="M891 700 L705 119 L526 700 L456 700 L277 119 L91 700 L10 700 L239 0 L312 0 L491 582 L670 0 L743 0 L969 700 L891 700 Z " />
<glyph glyph-name="X" unicode="X" horiz-adv-x="624" d="M614 0 L356 359 L600 700 L511 700 L312 422 L113 700 L24 700 L267 359 L10 0 L99 0 L312 297 L525 0 L614 0 Z " />
<glyph glyph-name="Y" unicode="Y" horiz-adv-x="559" d="M559 700 L476 700 L279 349 L83 700 L0 700 L243 265 L243 0 L316 0 L316 266 L559 700 Z " />
<glyph glyph-name="Z" unicode="Z" horiz-adv-x="585" d="M118 73 L551 628 L551 700 L50 700 L50 628 L459 628 L20 73 L20 0 L565 0 L565 73 L118 73 Z " />
<glyph glyph-name="bracketleft" unicode="&#x5b;" horiz-adv-x="314" d="M274 678 L274 751 L70 751 L70 -154 L274 -154 L274 -82 L142 -82 L142 678 L274 678 Z " />
<glyph glyph-name="backslash" unicode="&#x5c;" horiz-adv-x="386" d="M86 751 L10 751 L310 -154 L386 -154 L86 751 Z " />
<glyph glyph-name="bracketright" unicode="&#x5d;" horiz-adv-x="315" d="M172 678 L172 -82 L40 -82 L40 -154 L245 -154 L245 751 L40 751 L40 678 L172 678 Z " />
<glyph glyph-name="asciicircum" unicode="&#x5e;" horiz-adv-x="470" d="M425 422 L276 700 L194 700 L45 422 L126 422 L235 624 L344 422 L425 422 Z " />
<glyph glyph-name="underscore" unicode="&#x5f;" horiz-adv-x="573" d="M20 -28 L20 -100 L553 -100 L553 -28 L20 -28 Z " />
<glyph glyph-name="grave" unicode="&#x60;" horiz-adv-x="254" d="M126 700 L50 700 L149 563 L204 563 L126 700 Z " />
<glyph glyph-name="a" unicode="a" horiz-adv-x="470" d="M425 0 C425 0 424 225 424 323 C424 425 359 489 247 489 C129 489 73 421 60 356 L124 341 C136 382 160 424 245 424 C337 424 354 371 355 338 C356 306 327 292 252 280 C104 256 30 213 30 118 C30 37 96 -7 185 -7 C254 -7 310 21 353 58 L353 0 L425 0 Z M191 61 C167 61 106 70 106 123 C106 176 158 197 262 214 C298 220 329 224 355 229 L355 207 C356 120 285 61 191 61 L191 61 Z " />
<glyph glyph-name="b" unicode="b" horiz-adv-x="547" d="M286 489 C217 489 164 461 127 416 L127 700 L55 700 L55 0 L127 0 L127 65 C164 20 217 -7 286 -7 C424 -7 512 103 512 240 C512 378 424 489 286 489 L286 489 Z M286 63 C187 63 130 141 130 240 C130 339 187 419 286 419 C385 419 439 339 439 240 C439 141 385 63 286 63 L286 63 Z " />
<glyph glyph-name="c" unicode="c" horiz-adv-x="485" d="M262 63 C163 63 103 141 103 240 C103 339 163 419 261 419 C321 419 368 390 397 346 L460 376 C420 444 349 489 261 489 C124 489 30 378 30 240 C30 103 124 -7 262 -7 C349 -7 420 36 460 104 L397 135 C368 90 321 63 262 63 L262 63 Z " />
<glyph glyph-name="d" unicode="d" horiz-adv-x="542" d="M415 700 L415 416 C379 461 325 489 256 489 C118 489 30 378 30 240 C30 103 118 -7 256 -7 C325 -7 379 20 415 65 L415 0 L487 0 L487 700 L415 700 Z M256 63 C157 63 103 141 103 240 C103 339 157 419 256 419 C355 419 412 339 412 240 C412 141 355 63 256 63 L256 63 Z " />
<glyph glyph-name="e" unicode="e" horiz-adv-x="512" d="M259 489 C122 489 30 378 30 240 C30 103 128 -7 265 -7 C353 -7 421 36 461 104 L398 135 C369 90 325 63 265 63 C175 63 115 128 105 215 L476 215 C476 223 477 232 477 240 C477 378 397 489 259 489 L259 489 Z M259 419 C342 419 389 363 403 287 L108 287 C123 363 177 419 259 419 L259 419 Z " />
<glyph glyph-name="f" unicode="f" horiz-adv-x="299" d="M188 624 C203 637 243 638 274 614 L314 669 C281 698 229 709 197 706 C135 698 96 657 96 548 C96 535 96 511 96 482 L25 482 L25 410 L96 410 C96 243 96 0 96 0 L168 0 C168 0 168 245 168 410 L261 410 L261 482 L168 482 C168 512 168 535 168 546 C168 586 170 609 188 624 L188 624 Z " />
<glyph glyph-name="g" unicode="g" horiz-adv-x="542" d="M414 482 L414 417 C378 462 324 489 256 489 C118 489 30 378 30 240 C30 103 118 -7 256 -7 C324 -7 378 20 414 65 L414 26 C414 -95 356 -156 258 -156 C200 -156 144 -128 117 -84 L57 -120 C96 -184 174 -226 258 -226 C403 -226 487 -134 487 20 L487 482 L414 482 Z M256 63 C157 63 103 141 103 240 C103 339 157 419 256 419 C354 419 411 339 411 240 C411 141 354 63 256 63 L256 63 Z " />
<glyph glyph-name="h" unicode="h" horiz-adv-x="500" d="M267 489 C208 489 161 465 128 426 L128 700 L55 700 L55 0 L128 0 L128 260 C128 367 182 417 256 417 C334 417 378 371 378 266 C378 194 378 0 378 0 L450 0 C450 0 450 106 450 266 C450 443 363 489 267 489 L267 489 Z " />
<glyph glyph-name="i" unicode="i" horiz-adv-x="191" d="M59 0 L132 0 L132 482 L59 482 L59 0 Z M95 574 C118 574 136 592 136 614 C136 637 118 655 95 655 C73 655 55 637 55 614 C55 592 73 574 95 574 L95 574 Z " />
<glyph glyph-name="j" unicode="j" horiz-adv-x="204" d="M108 574 C131 574 149 592 149 614 C149 637 131 655 108 655 C86 655 68 637 68 614 C68 592 86 574 108 574 L108 574 Z M72 -65 C72 -105 70 -128 52 -143 C37 -156 6 -158 -24 -132 L-65 -187 C-30 -215 12 -228 43 -225 C106 -217 145 -179 145 -67 C145 20 145 482 145 482 L72 482 C72 482 72 5 72 -65 L72 -65 Z " />
<glyph glyph-name="k" unicode="k" horiz-adv-x="473" d="M369 0 L458 0 L249 288 L428 482 L330 482 L127 262 L127 700 L55 700 L55 0 L127 0 L127 156 L199 234 L369 0 Z " />
<glyph glyph-name="l" unicode="l" horiz-adv-x="182" d="M55 750 L55 0 L127 0 L127 750 L55 750 Z " />
<glyph glyph-name="m" unicode="m" horiz-adv-x="787" d="M558 489 C490 489 438 456 405 405 C374 469 319 489 256 489 C201 489 158 468 128 433 L128 482 L55 482 L55 0 L128 0 L128 260 C128 366 170 417 244 417 C322 417 358 371 358 266 C358 193 358 0 358 0 L430 0 C430 0 430 103 430 260 C430 366 473 417 547 417 C625 417 660 371 660 266 C660 193 660 0 660 0 L732 0 C732 0 732 105 732 266 C732 443 654 489 558 489 L558 489 Z " />
<glyph glyph-name="n" unicode="n" horiz-adv-x="505" d="M267 489 C208 489 161 465 127 426 L127 482 L55 482 L55 0 L127 0 L127 260 C127 366 181 417 255 417 C333 417 378 371 378 266 C378 193 378 0 378 0 L450 0 C450 0 450 105 450 266 C450 443 362 489 267 489 L267 489 Z " />
<glyph glyph-name="o" unicode="o" horiz-adv-x="537" d="M267 489 C130 489 35 378 35 240 C35 102 130 -8 267 -8 C405 -8 502 102 502 240 C502 378 405 489 267 489 L267 489 Z M267 63 C168 63 108 141 108 240 C108 339 168 419 267 419 C366 419 429 339 429 240 C429 141 366 63 267 63 L267 63 Z " />
<glyph glyph-name="p" unicode="p" horiz-adv-x="547" d="M286 489 C218 489 164 461 127 416 L127 482 L55 482 L55 -218 L127 -218 L127 65 C164 20 218 -8 286 -8 C424 -8 512 102 512 240 C512 378 424 489 286 489 L286 489 Z M286 63 C188 63 131 141 131 240 C131 339 188 419 286 419 C385 419 439 339 439 240 C439 141 385 63 286 63 L286 63 Z " />
<glyph glyph-name="q" unicode="q" horiz-adv-x="545" d="M418 482 L418 416 C382 461 328 489 259 489 C121 489 30 378 30 240 C30 102 121 -8 259 -8 C328 -8 382 20 418 65 L418 -218 L490 -218 L490 482 L418 482 Z M259 63 C160 63 106 141 106 240 C106 339 160 419 259 419 C358 419 415 339 415 240 C415 141 358 63 259 63 L259 63 Z " />
<glyph glyph-name="r" unicode="r" horiz-adv-x="308" d="M262 489 C204 489 156 465 123 426 L123 482 L50 482 L50 0 L123 0 L123 260 C123 366 177 417 251 417 C263 417 274 416 284 414 L298 487 C286 488 274 489 262 489 L262 489 Z " />
<glyph glyph-name="s" unicode="s" horiz-adv-x="426" d="M222 278 C152 294 108 305 102 343 C95 382 128 419 198 417 C252 415 288 394 300 359 L367 385 C345 448 281 489 197 489 C90 489 18 417 30 331 C44 241 136 222 208 208 C293 190 318 175 318 137 C318 78 255 64 215 64 C151 64 106 89 91 132 L25 105 C51 38 122 -8 215 -8 C302 -8 391 36 391 137 C391 229 303 261 222 278 L222 278 Z " />
<glyph glyph-name="t" unicode="t" horiz-adv-x="319" d="M267 85 C237 60 197 61 181 74 C164 89 162 112 162 152 C162 188 162 305 162 409 L264 409 L264 482 L162 482 C162 548 162 608 162 608 L89 588 C89 588 89 549 89 482 L15 482 L15 409 L89 409 C89 308 89 194 89 150 C89 39 128 0 191 -7 C222 -11 270 2 304 30 L267 85 Z " />
<glyph glyph-name="u" unicode="u" horiz-adv-x="500" d="M373 482 L373 222 C373 115 319 65 245 65 C167 65 123 111 123 216 C123 288 123 482 123 482 L50 482 C50 482 50 376 50 216 C50 39 141 -8 236 -8 C295 -8 340 17 373 56 L373 0 L445 0 L445 482 L373 482 Z " />
<glyph glyph-name="v" unicode="v" horiz-adv-x="448" d="M360 482 L224 101 L87 482 L10 482 L185 0 L262 0 L438 482 L360 482 Z " />
<glyph glyph-name="w" unicode="w" horiz-adv-x="710" d="M630 482 L511 117 L390 482 L320 482 L199 117 L81 482 L5 482 L161 0 L234 0 L355 365 L476 0 L549 0 L705 482 L630 482 Z " />
<glyph glyph-name="x" unicode="x" horiz-adv-x="455" d="M450 0 L272 248 L440 482 L350 482 L227 310 L104 482 L15 482 L183 248 L5 0 L94 0 L227 186 L361 0 L450 0 Z " />
<glyph glyph-name="y" unicode="y" horiz-adv-x="443" d="M361 482 L224 101 L88 482 L10 482 L186 0 C138 -124 119 -143 51 -130 L38 -201 C96 -216 150 -207 188 -156 C216 -117 239 -63 269 15 L438 482 L361 482 Z " />
<glyph glyph-name="z" unicode="z" horiz-adv-x="439" d="M124 72 L400 409 L400 482 L44 482 L44 409 L306 409 L30 72 L30 0 L414 0 L414 72 L124 72 Z " />
<glyph glyph-name="braceleft" unicode="&#x7b;" horiz-adv-x="348" d="M308 687 L308 760 C186 760 130 714 130 554 C130 444 142 320 70 320 L70 277 C142 277 130 153 130 43 C130 -117 186 -163 308 -163 L308 -90 C244 -90 199 -87 199 43 C199 127 206 252 138 299 C206 346 199 470 199 554 C199 684 244 687 308 687 L308 687 Z " />
<glyph glyph-name="bar" unicode="&#x7c;" horiz-adv-x="253" d="M90 751 L90 -154 L163 -154 L163 751 L90 751 Z " />
<glyph glyph-name="braceright" unicode="&#x7d;" horiz-adv-x="349" d="M40 687 C104 687 150 684 150 554 C150 470 142 346 211 299 C142 252 150 127 150 43 C150 -87 104 -90 40 -90 L40 -163 C163 -163 219 -117 219 43 C219 153 207 277 279 277 L279 320 C207 320 219 444 219 554 C219 714 163 760 40 760 L40 687 L40 687 Z " />
<glyph glyph-name="asciitilde" unicode="&#x7e;" horiz-adv-x="553" d="M435 349 C422 325 404 311 371 314 C346 316 322 326 297 339 C267 355 230 371 186 371 C108 371 73 324 50 282 L121 260 C137 284 158 302 188 302 C213 302 238 288 263 275 C294 259 340 243 371 242 C442 239 483 285 503 327 L435 349 Z " />
<glyph glyph-name="exclamdown" unicode="&#xa1;" horiz-adv-x="210" d="M83 316 L74 -210 L146 -210 L138 316 L83 316 Z M110 422 C132 422 150 440 150 462 C150 484 132 502 110 502 C88 502 70 484 70 462 C70 440 88 422 110 422 L110 422 Z " />
<glyph glyph-name="cent" unicode="&#xa2;" horiz-adv-x="501" d="M292 64 L292 420 C342 414 382 387 407 347 L471 378 C433 441 370 484 292 490 L292 583 L219 583 L219 485 C111 460 40 361 40 242 C40 123 111 23 219 -2 L219 -101 L292 -101 L292 -7 C370 0 433 43 471 106 L407 136 C382 97 342 69 292 64 L292 64 Z M113 242 C113 321 152 389 219 412 L219 71 C152 94 113 162 113 242 L113 242 Z " />
<glyph glyph-name="sterling" unicode="&#xa3;" horiz-adv-x="535" d="M193 72 L193 271 L391 271 L391 343 L193 343 L193 459 C193 610 264 634 318 634 C374 634 409 592 431 551 L492 579 C454 664 389 706 315 706 C204 706 120 627 120 459 L120 343 L43 343 L43 271 L120 271 L120 72 L20 72 L20 0 L515 0 L515 72 L193 72 Z " />
<glyph glyph-name="currency" unicode="&#xa4;" horiz-adv-x="650" d="M538 357 C538 402 524 444 499 479 L590 568 L539 619 L449 530 C414 555 371 570 325 570 C279 570 236 555 201 530 L111 619 L60 568 L150 479 C126 444 112 402 112 357 C112 312 126 270 150 235 L60 146 L111 95 L201 184 C236 159 279 144 325 144 C371 144 414 159 449 184 L539 95 L590 146 L499 235 C524 270 538 312 538 357 L538 357 Z M190 357 C190 435 247 498 325 498 C402 498 460 435 460 357 C460 279 402 216 325 216 C247 216 190 279 190 357 L190 357 Z " />
<glyph glyph-name="yen" unicode="&#xa5;" horiz-adv-x="599" d="M579 700 L496 700 L299 349 L103 700 L20 700 L244 300 L94 300 L94 228 L264 228 L264 177 L94 177 L94 105 L264 105 L264 0 L336 0 L336 105 L505 105 L505 177 L336 177 L336 228 L505 228 L505 300 L355 300 L579 700 Z " />
<glyph glyph-name="brokenbar" unicode="&#xa6;" horiz-adv-x="253" d="M90 751 L90 420 L163 420 L163 751 L90 751 Z M90 -154 L163 -154 L163 176 L90 176 L90 -154 Z " />
<glyph glyph-name="section" unicode="&#xa7;" horiz-adv-x="571" d="M508 298 C493 397 403 436 324 470 C233 509 177 536 180 609 C183 664 226 706 286 706 C351 706 387 662 396 615 L466 635 C459 666 445 696 425 719 C401 746 355 779 286 779 C192 779 108 717 108 612 C108 557 127 518 155 488 C98 453 49 386 63 294 C78 195 168 156 248 122 C339 83 394 56 391 -17 C389 -72 345 -114 286 -114 C221 -114 184 -70 175 -23 L106 -43 C112 -74 127 -103 147 -127 C171 -154 216 -186 286 -186 C379 -186 464 -125 464 -20 C464 35 445 74 416 104 C473 139 522 206 508 298 L508 298 Z M135 305 C124 377 175 425 221 439 C245 425 271 414 295 403 C378 368 429 342 437 287 C448 215 396 168 351 153 C327 167 301 178 277 189 C194 224 143 250 135 305 L135 305 Z " />
<glyph glyph-name="dieresis" unicode="&#xa8;" horiz-adv-x="333" d="M91 679 C69 679 50 661 50 638 C50 616 69 598 91 598 C113 598 131 616 131 638 C131 661 113 679 91 679 L91 679 Z M242 679 C220 679 202 661 202 638 C202 616 220 598 242 598 C265 598 283 616 283 638 C283 661 265 679 242 679 L242 679 Z " />
<glyph glyph-name="copyright" unicode="&#xa9;" horiz-adv-x="806" d="M403 712 C203 712 40 549 40 349 C40 149 203 -14 403 -14 C603 -14 766 149 766 349 C766 549 603 712 403 712 L403 712 Z M403 50 C238 50 107 184 107 349 C107 514 238 648 403 648 C568 648 699 514 699 349 C699 184 568 50 403 50 L403 50 Z M407 490 C455 490 492 467 515 432 L565 456 C533 510 477 546 407 546 C298 546 223 458 223 348 C223 239 298 152 408 152 C477 152 533 186 565 240 L515 265 C492 229 455 207 408 207 C329 207 282 270 282 348 C282 427 329 490 407 490 L407 490 Z " />
<glyph glyph-name="guillemotleft" unicode="&#xab;" horiz-adv-x="507" d="M270 425 L181 425 L70 268 L181 110 L270 110 L158 268 L270 425 Z M437 425 L348 425 L237 268 L348 110 L437 110 L325 268 L437 425 Z " />
<glyph glyph-name="registered" unicode="&#xae;" horiz-adv-x="806" d="M403 712 C203 712 40 549 40 349 C40 149 203 -14 403 -14 C603 -14 766 149 766 349 C766 549 603 712 403 712 L403 712 Z M403 50 C238 50 106 184 106 349 C106 514 238 648 403 648 C568 648 699 514 699 349 C699 184 568 50 403 50 L403 50 Z M554 421 C554 496 495 541 423 541 L274 541 L274 170 L330 170 L330 301 L423 301 C425 301 428 301 430 301 L503 170 L567 170 L486 313 C528 331 554 369 554 421 L554 421 Z M330 485 L423 485 C466 485 496 464 496 421 C496 377 467 356 423 356 L330 356 L330 485 Z " />
<glyph glyph-name="macron" unicode="&#xaf;" horiz-adv-x="350" d="M50 677 L50 605 L300 605 L300 677 L50 677 Z " />
<glyph glyph-name="degree" unicode="&#xb0;" horiz-adv-x="403" d="M201 714 C118 714 50 649 50 563 C50 476 118 411 201 411 C284 411 353 476 353 563 C353 649 284 714 201 714 L201 714 Z M201 478 C154 478 116 513 116 563 C116 613 154 648 201 648 C248 648 286 613 286 563 C286 513 248 478 201 478 L201 478 Z " />
<glyph glyph-name="plusminus" unicode="&#xb1;" horiz-adv-x="528" d="M300 418 L300 576 L228 576 L228 418 L70 418 L70 345 L228 345 L228 188 L300 188 L300 345 L458 345 L458 418 L300 418 Z M70 57 L458 57 L458 129 L70 129 L70 57 Z " />
<glyph glyph-name="acute" unicode="&#xb4;" horiz-adv-x="254" d="M128 700 L50 563 L105 563 L204 700 L128 700 Z " />
<glyph glyph-name="paragraph" unicode="&#xb6;" horiz-adv-x="562" d="M512 700 L215 700 C124 700 50 623 50 532 C50 441 114 365 215 365 L215 -154 L287 -154 L287 628 L386 628 L386 -154 L458 -154 L458 628 L512 628 L512 700 Z " />
<glyph glyph-name="cedilla" unicode="&#xb8;" horiz-adv-x="268" d="M129 -56 L156 -1 L101 -1 L62 -77 L104 -107 C121 -91 141 -93 153 -97 C171 -104 176 -123 167 -140 C151 -170 102 -164 72 -142 L50 -182 C95 -210 142 -214 179 -193 C203 -179 218 -152 218 -124 C218 -85 191 -49 129 -56 L129 -56 Z " />
<glyph glyph-name="guillemotright" unicode="&#xbb;" horiz-adv-x="507" d="M158 425 L70 425 L181 268 L70 110 L158 110 L270 268 L158 425 Z M325 425 L237 425 L348 268 L237 110 L325 110 L437 268 L325 425 Z " />
<glyph glyph-name="questiondown" unicode="&#xbf;" horiz-adv-x="425" d="M252 422 C275 422 293 440 293 462 C293 484 275 502 252 502 C230 502 212 484 212 462 C212 440 230 422 252 422 L252 422 Z M343 -30 C330 -90 285 -147 222 -147 C152 -147 104 -116 110 -30 C114 28 158 83 199 133 C245 187 289 243 290 316 L221 316 C220 262 181 216 139 166 C94 113 46 49 41 -25 C31 -158 126 -216 222 -216 C324 -216 390 -133 405 -45 L343 -30 Z " />
<glyph glyph-name="Agrave" unicode="&#xc0;" horiz-adv-x="655" d="M545 0 L625 0 L360 700 L294 700 L30 0 L110 0 L186 203 L469 203 L545 0 Z M213 275 L327 585 L442 275 L213 275 Z M275 900 L199 900 L298 763 L353 763 L275 900 Z " />
<glyph glyph-name="Aacute" unicode="&#xc1;" horiz-adv-x="655" d="M545 0 L625 0 L360 700 L294 700 L30 0 L110 0 L186 203 L469 203 L545 0 Z M213 275 L327 585 L442 275 L213 275 Z M389 900 L311 763 L366 763 L465 900 L389 900 Z " />
<glyph glyph-name="Acircumflex" unicode="&#xc2;" horiz-adv-x="655" d="M545 0 L625 0 L360 700 L294 700 L30 0 L110 0 L186 203 L469 203 L545 0 Z M213 275 L327 585 L442 275 L213 275 Z M468 763 L361 900 L293 900 L187 763 L270 763 L327 843 L384 763 L468 763 Z " />
<glyph glyph-name="Atilde" unicode="&#xc3;" horiz-adv-x="655" d="M545 0 L625 0 L360 700 L294 700 L30 0 L110 0 L186 203 L469 203 L545 0 Z M213 275 L327 585 L442 275 L213 275 Z M422 870 C409 822 376 839 338 860 C266 900 203 883 165 805 L224 774 C248 816 275 815 313 793 C385 752 455 742 488 850 L422 870 Z " />
<glyph glyph-name="Adieresis" unicode="&#xc4;" horiz-adv-x="655" d="M545 0 L625 0 L360 700 L294 700 L30 0 L110 0 L186 203 L469 203 L545 0 Z M213 275 L327 585 L442 275 L213 275 Z M252 879 C230 879 211 861 211 838 C211 816 230 798 252 798 C274 798 292 816 292 838 C292 861 274 879 252 879 L252 879 Z M403 879 C381 879 363 861 363 838 C363 816 381 798 403 798 C426 798 444 816 444 838 C444 861 426 879 403 879 L403 879 Z " />
<glyph glyph-name="Aring" unicode="&#xc5;" horiz-adv-x="655" d="M545 0 L625 0 L360 700 L294 700 L30 0 L110 0 L186 203 L469 203 L545 0 Z M213 275 L327 585 L442 275 L213 275 Z M328 976 C266 976 217 926 217 865 C217 804 266 754 328 754 C389 754 438 804 438 865 C438 926 389 976 328 976 L328 976 Z M328 813 C299 813 275 836 275 865 C275 894 299 917 328 917 C356 917 380 894 380 865 C380 836 356 813 328 813 L328 813 Z " />
<glyph glyph-name="AE" unicode="&#xc6;" horiz-adv-x="994" d="M551 72 L551 314 L907 314 L907 386 L551 386 L551 628 L938 628 L938 700 L367 700 L0 0 L78 0 L184 203 L479 203 L479 0 L944 0 L944 72 L551 72 Z M222 275 L406 628 L479 628 L479 275 L222 275 Z " />
<glyph glyph-name="Ccedilla" unicode="&#xc7;" horiz-adv-x="705" d="M385 64 C228 64 114 192 114 350 C114 508 228 635 385 635 C482 635 562 588 611 515 L675 547 C614 643 510 707 385 707 C188 707 40 547 40 350 C40 168 165 19 339 -4 L301 -77 L344 -107 C360 -91 380 -93 392 -97 C410 -104 415 -123 406 -140 C390 -170 342 -164 311 -142 L290 -182 C334 -210 381 -214 418 -193 C443 -179 458 -152 458 -124 C458 -85 430 -49 368 -56 L393 -7 C514 -5 616 58 675 152 L611 184 C562 111 482 64 385 64 L385 64 Z " />
<glyph glyph-name="Egrave" unicode="&#xc8;" horiz-adv-x="575" d="M132 72 L132 314 L488 314 L488 386 L132 386 L132 628 L519 628 L519 700 L60 700 L60 0 L525 0 L525 72 L132 72 Z M272 900 L196 900 L295 763 L350 763 L272 900 Z " />
<glyph glyph-name="Eacute" unicode="&#xc9;" horiz-adv-x="575" d="M132 72 L132 314 L488 314 L488 386 L132 386 L132 628 L519 628 L519 700 L60 700 L60 0 L525 0 L525 72 L132 72 Z M334 900 L256 763 L311 763 L410 900 L334 900 Z " />
<glyph glyph-name="Ecircumflex" unicode="&#xca;" horiz-adv-x="575" d="M132 72 L132 314 L488 314 L488 386 L132 386 L132 628 L519 628 L519 700 L60 700 L60 0 L525 0 L525 72 L132 72 Z M443 763 L336 900 L268 900 L162 763 L245 763 L302 843 L359 763 L443 763 Z " />
<glyph glyph-name="Edieresis" unicode="&#xcb;" horiz-adv-x="575" d="M132 72 L132 314 L488 314 L488 386 L132 386 L132 628 L519 628 L519 700 L60 700 L60 0 L525 0 L525 72 L132 72 Z M222 879 C200 879 181 861 181 838 C181 816 200 798 222 798 C244 798 262 816 262 838 C262 861 244 879 222 879 L222 879 Z M373 879 C351 879 333 861 333 838 C333 816 351 798 373 798 C396 798 414 816 414 838 C414 861 396 879 373 879 L373 879 Z " />
<glyph glyph-name="Igrave" unicode="&#xcc;" horiz-adv-x="202" d="M65 700 L65 0 L137 0 L137 700 L65 700 Z M50 900 L-26 900 L73 763 L128 763 L50 900 Z " />
<glyph glyph-name="Iacute" unicode="&#xcd;" horiz-adv-x="202" d="M65 700 L65 0 L137 0 L137 700 L65 700 Z M152 900 L74 763 L129 763 L228 900 L152 900 Z " />
<glyph glyph-name="Icircumflex" unicode="&#xce;" horiz-adv-x="203" d="M66 700 L66 0 L138 0 L138 700 L66 700 Z M243 763 L136 900 L68 900 L-38 763 L45 763 L102 843 L159 763 L243 763 Z " />
<glyph glyph-name="Idieresis" unicode="&#xcf;" horiz-adv-x="218" d="M75 700 L75 0 L147 0 L147 700 L75 700 Z M36 879 C14 879 -5 861 -5 838 C-5 816 14 798 36 798 C58 798 76 816 76 838 C76 861 58 879 36 879 L36 879 Z M187 879 C165 879 147 861 147 838 C147 816 165 798 187 798 C210 798 228 816 228 838 C228 861 210 879 187 879 L187 879 Z " />
<glyph glyph-name="Eth" unicode="&#xd0;" horiz-adv-x="708" d="M315 700 L100 700 L100 386 L10 386 L10 314 L100 314 L100 0 L316 0 C531 0 668 156 668 349 C668 542 534 700 315 700 L315 700 Z M309 72 C242 72 199 72 173 72 L173 314 L340 314 L340 386 L173 386 L173 628 L310 628 C485 628 594 503 594 349 C594 196 488 72 309 72 L309 72 Z " />
<glyph glyph-name="Ntilde" unicode="&#xd1;" horiz-adv-x="662" d="M525 700 L525 134 L131 700 L65 700 L65 0 L137 0 L137 568 L531 0 L597 0 L597 700 L525 700 Z M437 870 C424 822 391 839 353 860 C281 900 218 883 180 805 L239 774 C263 816 290 815 328 793 C400 752 470 742 503 850 L437 870 Z " />
<glyph glyph-name="Ograve" unicode="&#xd2;" horiz-adv-x="769" d="M385 706 C188 706 45 546 45 349 C45 152 188 -8 385 -8 C582 -8 724 152 724 349 C724 546 582 706 385 706 L385 706 Z M385 63 C227 63 119 191 119 349 C119 507 227 635 385 635 C542 635 650 507 650 349 C650 191 542 63 385 63 L385 63 Z M344 900 L268 900 L367 763 L422 763 L344 900 Z " />
<glyph glyph-name="Oacute" unicode="&#xd3;" horiz-adv-x="769" d="M385 706 C188 706 45 546 45 349 C45 152 188 -8 385 -8 C582 -8 724 152 724 349 C724 546 582 706 385 706 L385 706 Z M385 63 C227 63 119 191 119 349 C119 507 227 635 385 635 C542 635 650 507 650 349 C650 191 542 63 385 63 L385 63 Z M445 900 L367 763 L422 763 L521 900 L445 900 Z " />
<glyph glyph-name="Ocircumflex" unicode="&#xd4;" horiz-adv-x="769" d="M385 706 C188 706 45 546 45 349 C45 152 188 -8 385 -8 C582 -8 724 152 724 349 C724 546 582 706 385 706 L385 706 Z M385 63 C227 63 119 191 119 349 C119 507 227 635 385 635 C542 635 650 507 650 349 C650 191 542 63 385 63 L385 63 Z M525 763 L418 900 L350 900 L244 763 L327 763 L384 843 L441 763 L525 763 Z " />
<glyph glyph-name="Otilde" unicode="&#xd5;" horiz-adv-x="769" d="M385 706 C188 706 45 546 45 349 C45 152 188 -8 385 -8 C582 -8 724 152 724 349 C724 546 582 706 385 706 L385 706 Z M385 63 C227 63 119 191 119 349 C119 507 227 635 385 635 C542 635 650 507 650 349 C650 191 542 63 385 63 L385 63 Z M480 870 C467 822 434 839 396 860 C324 900 261 883 223 805 L282 774 C306 816 333 815 371 793 C443 752 513 742 546 850 L480 870 Z " />
<glyph glyph-name="Odieresis" unicode="&#xd6;" horiz-adv-x="769" d="M385 706 C188 706 45 546 45 349 C45 152 188 -8 385 -8 C582 -8 724 152 724 349 C724 546 582 706 385 706 L385 706 Z M385 63 C227 63 119 191 119 349 C119 507 227 635 385 635 C542 635 650 507 650 349 C650 191 542 63 385 63 L385 63 Z M309 879 C287 879 268 861 268 838 C268 816 287 798 309 798 C331 798 349 816 349 838 C349 861 331 879 309 879 L309 879 Z M460 879 C438 879 420 861 420 838 C420 816 438 798 460 798 C483 798 501 816 501 838 C501 861 483 879 460 879 L460 879 Z " />
<glyph glyph-name="multiply" unicode="&#xd7;" horiz-adv-x="494" d="M424 432 L372 483 L247 357 L122 483 L70 432 L196 306 L70 180 L122 129 L247 255 L372 129 L424 180 L298 306 L424 432 Z " />
<glyph glyph-name="Oslash" unicode="&#xd8;" horiz-adv-x="776" d="M731 676 L677 724 L596 634 C540 679 469 706 388 706 C191 706 49 546 49 349 C49 260 78 179 128 116 L45 24 L99 -24 L179 65 C236 20 307 -7 388 -7 C585 -7 727 152 727 349 C727 439 698 521 647 583 L731 676 Z M123 349 C123 507 230 635 388 635 C450 635 505 615 548 581 L177 171 C142 220 123 282 123 349 L123 349 Z M653 349 C653 192 546 64 388 64 C325 64 271 84 227 118 L598 529 C633 480 653 417 653 349 L653 349 Z " />
<glyph glyph-name="Ugrave" unicode="&#xd9;" horiz-adv-x="640" d="M508 700 C508 700 508 404 508 275 C508 138 427 64 323 64 C219 64 132 135 132 275 C132 385 132 700 132 700 L60 700 C60 700 60 422 60 278 C60 78 179 -8 323 -8 C467 -8 580 82 580 281 C580 427 580 700 580 700 L508 700 Z M279 900 L203 900 L302 763 L357 763 L279 900 Z " />
<glyph glyph-name="Uacute" unicode="&#xda;" horiz-adv-x="640" d="M508 700 C508 700 508 404 508 275 C508 138 427 64 323 64 C219 64 132 135 132 275 C132 385 132 700 132 700 L60 700 C60 700 60 422 60 278 C60 78 179 -8 323 -8 C467 -8 580 82 580 281 C580 427 580 700 580 700 L508 700 Z M366 900 L288 763 L343 763 L442 900 L366 900 Z " />
<glyph glyph-name="Ucircumflex" unicode="&#xdb;" horiz-adv-x="640" d="M508 700 C508 700 508 404 508 275 C508 138 427 64 323 64 C219 64 132 135 132 275 C132 385 132 700 132 700 L60 700 C60 700 60 422 60 278 C60 78 179 -8 323 -8 C467 -8 580 82 580 281 C580 427 580 700 580 700 L508 700 Z M461 763 L354 900 L286 900 L180 763 L263 763 L320 843 L377 763 L461 763 Z " />
<glyph glyph-name="Udieresis" unicode="&#xdc;" horiz-adv-x="640" d="M508 700 C508 700 508 404 508 275 C508 138 427 64 323 64 C219 64 132 135 132 275 C132 385 132 700 132 700 L60 700 C60 700 60 422 60 278 C60 78 179 -8 323 -8 C467 -8 580 82 580 281 C580 427 580 700 580 700 L508 700 Z M245 879 C223 879 204 861 204 838 C204 816 223 798 245 798 C267 798 285 816 285 838 C285 861 267 879 245 879 L245 879 Z M396 879 C374 879 356 861 356 838 C356 816 374 798 396 798 C419 798 437 816 437 838 C437 861 419 879 396 879 L396 879 Z " />
<glyph glyph-name="Yacute" unicode="&#xdd;" horiz-adv-x="559" d="M559 700 L476 700 L279 349 L83 700 L0 700 L243 265 L243 0 L316 0 L316 266 L559 700 Z M341 900 L263 763 L318 763 L417 900 L341 900 Z " />
<glyph glyph-name="Thorn" unicode="&#xde;" horiz-adv-x="587" d="M328 564 C260 564 187 564 138 564 L138 700 L65 700 L65 0 L138 0 L138 136 L328 136 C455 136 547 232 547 350 C547 468 459 564 328 564 L328 564 Z M328 208 L138 208 L138 492 L328 492 C417 492 472 428 472 350 C472 272 416 208 328 208 L328 208 Z " />
<glyph glyph-name="germandbls" unicode="&#xdf;" horiz-adv-x="492" d="M316 382 C373 408 413 470 413 537 C413 626 353 706 240 706 C146 706 55 642 55 477 C55 389 55 0 55 0 L125 0 C125 0 125 405 125 465 C125 586 172 639 240 639 C306 639 342 599 342 533 C342 467 297 411 224 411 L224 345 C322 345 383 289 383 200 C383 113 320 59 224 59 L224 -7 C376 -7 457 88 457 202 C457 284 403 360 316 382 L316 382 Z " />
<glyph glyph-name="agrave" unicode="&#xe0;" horiz-adv-x="470" d="M425 0 C425 0 424 225 424 323 C424 425 359 489 247 489 C129 489 73 421 60 356 L124 341 C136 382 160 424 245 424 C337 424 354 371 355 338 C356 306 327 292 252 280 C104 256 30 213 30 118 C30 37 96 -7 185 -7 C254 -7 310 21 353 58 L353 0 L425 0 Z M191 61 C167 61 106 70 106 123 C106 176 158 197 262 214 C298 220 329 224 355 229 L355 207 C356 120 285 61 191 61 L191 61 Z M217 700 L141 700 L240 563 L295 563 L217 700 Z " />
<glyph glyph-name="aacute" unicode="&#xe1;" horiz-adv-x="470" d="M425 0 C425 0 424 225 424 323 C424 425 359 489 247 489 C129 489 73 421 60 356 L124 341 C136 382 160 424 245 424 C337 424 354 371 355 338 C356 306 327 292 252 280 C104 256 30 213 30 118 C30 37 96 -7 185 -7 C254 -7 310 21 353 58 L353 0 L425 0 Z M191 61 C167 61 106 70 106 123 C106 176 158 197 262 214 C298 220 329 224 355 229 L355 207 C356 120 285 61 191 61 L191 61 Z M289 700 L211 563 L266 563 L365 700 L289 700 Z " />
<glyph glyph-name="acircumflex" unicode="&#xe2;" horiz-adv-x="470" d="M425 0 C425 0 424 225 424 323 C424 425 359 489 247 489 C129 489 73 421 60 356 L124 341 C136 382 160 424 245 424 C337 424 354 371 355 338 C356 306 327 292 252 280 C104 256 30 213 30 118 C30 37 96 -7 185 -7 C254 -7 310 21 353 58 L353 0 L425 0 Z M191 61 C167 61 106 70 106 123 C106 176 158 197 262 214 C298 220 329 224 355 229 L355 207 C356 120 285 61 191 61 L191 61 Z M388 563 L281 700 L213 700 L107 563 L190 563 L247 643 L304 563 L388 563 Z " />
<glyph glyph-name="atilde" unicode="&#xe3;" horiz-adv-x="470" d="M425 0 C425 0 424 225 424 323 C424 425 359 489 247 489 C129 489 73 421 60 356 L124 341 C136 382 160 424 245 424 C337 424 354 371 355 338 C356 306 327 292 252 280 C104 256 30 213 30 118 C30 37 96 -7 185 -7 C254 -7 310 21 353 58 L353 0 L425 0 Z M191 61 C167 61 106 70 106 123 C106 176 158 197 262 214 C298 220 329 224 355 229 L355 207 C356 120 285 61 191 61 L191 61 Z M335 670 C322 622 289 639 251 660 C179 700 116 683 78 605 L137 574 C161 616 188 615 226 593 C298 552 368 542 401 650 L335 670 Z " />
<glyph glyph-name="adieresis" unicode="&#xe4;" horiz-adv-x="470" d="M425 0 C425 0 424 225 424 323 C424 425 359 489 247 489 C129 489 73 421 60 356 L124 341 C136 382 160 424 245 424 C337 424 354 371 355 338 C356 306 327 292 252 280 C104 256 30 213 30 118 C30 37 96 -7 185 -7 C254 -7 310 21 353 58 L353 0 L425 0 Z M191 61 C167 61 106 70 106 123 C106 176 158 197 262 214 C298 220 329 224 355 229 L355 207 C356 120 285 61 191 61 L191 61 Z M172 679 C150 679 131 661 131 638 C131 616 150 598 172 598 C194 598 212 616 212 638 C212 661 194 679 172 679 L172 679 Z M323 679 C301 679 283 661 283 638 C283 616 301 598 323 598 C346 598 364 616 364 638 C364 661 346 679 323 679 L323 679 Z " />
<glyph glyph-name="aring" unicode="&#xe5;" horiz-adv-x="470" d="M425 0 C425 0 424 225 424 323 C424 425 359 489 247 489 C129 489 73 421 60 356 L124 341 C136 382 160 424 245 424 C337 424 354 371 355 338 C356 306 327 292 252 280 C104 256 30 213 30 118 C30 37 96 -7 185 -7 C254 -7 310 21 353 58 L353 0 L425 0 Z M191 61 C167 61 106 70 106 123 C106 176 158 197 262 214 C298 220 329 224 355 229 L355 207 C356 120 285 61 191 61 L191 61 Z M238 776 C176 776 127 726 127 665 C127 604 176 554 238 554 C299 554 348 604 348 665 C348 726 299 776 238 776 L238 776 Z M238 613 C209 613 185 636 185 665 C185 694 209 717 238 717 C266 717 290 694 290 665 C290 636 266 613 238 613 L238 613 Z " />
<glyph glyph-name="ae" unicode="&#xe6;" horiz-adv-x="834" d="M582 489 C506 489 443 455 403 400 C377 457 322 489 243 489 C124 489 69 421 55 356 L120 341 C131 381 155 424 240 424 C333 424 350 371 351 338 C352 306 323 292 247 280 C99 256 25 213 25 117 C25 37 92 -7 181 -7 C249 -7 307 18 348 57 C364 73 377 91 387 109 C426 39 499 -7 588 -7 C675 -7 743 36 784 104 L720 135 C692 90 647 63 588 63 C498 63 437 128 428 215 L798 215 C799 223 799 232 799 240 C799 378 720 489 582 489 L582 489 Z M582 419 C665 419 712 363 725 287 L431 287 C446 363 500 419 582 419 L582 419 Z M351 207 C352 119 281 61 187 61 C163 61 102 69 102 123 C102 176 153 197 258 214 C293 220 325 223 351 228 L351 207 Z " />
<glyph glyph-name="ccedilla" unicode="&#xe7;" horiz-adv-x="485" d="M262 63 C163 63 103 141 103 240 C103 339 163 420 262 420 C321 420 369 391 397 346 L460 377 C420 445 349 490 262 490 C124 490 30 378 30 240 C30 117 106 15 221 -4 L184 -77 L226 -107 C243 -91 262 -93 275 -97 C293 -104 298 -123 289 -140 C273 -170 224 -164 194 -142 L172 -182 C216 -210 264 -214 301 -193 C325 -179 340 -152 340 -124 C340 -85 312 -49 251 -56 L275 -7 C357 -3 422 40 460 104 L397 135 C369 90 321 63 262 63 L262 63 Z " />
<glyph glyph-name="egrave" unicode="&#xe8;" horiz-adv-x="512" d="M259 489 C122 489 30 378 30 240 C30 103 128 -7 265 -7 C353 -7 421 36 461 104 L398 135 C369 90 325 63 265 63 C175 63 115 128 105 215 L476 215 C476 223 477 232 477 240 C477 378 397 489 259 489 L259 489 Z M259 419 C342 419 389 363 403 287 L108 287 C123 363 177 419 259 419 L259 419 Z M223 700 L147 700 L246 563 L301 563 L223 700 Z " />
<glyph glyph-name="eacute" unicode="&#xe9;" horiz-adv-x="512" d="M259 489 C122 489 30 378 30 240 C30 103 128 -7 265 -7 C353 -7 421 36 461 104 L398 135 C369 90 325 63 265 63 C175 63 115 128 105 215 L476 215 C476 223 477 232 477 240 C477 378 397 489 259 489 L259 489 Z M259 419 C342 419 389 363 403 287 L108 287 C123 363 177 419 259 419 L259 419 Z M315 700 L237 563 L292 563 L391 700 L315 700 Z " />
<glyph glyph-name="ecircumflex" unicode="&#xea;" horiz-adv-x="512" d="M259 489 C122 489 30 378 30 240 C30 103 128 -7 265 -7 C353 -7 421 36 461 104 L398 135 C369 90 325 63 265 63 C175 63 115 128 105 215 L476 215 C476 223 477 232 477 240 C477 378 397 489 259 489 L259 489 Z M259 419 C342 419 389 363 403 287 L108 287 C123 363 177 419 259 419 L259 419 Z M404 563 L297 700 L229 700 L123 563 L206 563 L263 643 L320 563 L404 563 Z " />
<glyph glyph-name="edieresis" unicode="&#xeb;" horiz-adv-x="512" d="M259 489 C122 489 30 378 30 240 C30 103 128 -7 265 -7 C353 -7 421 36 461 104 L398 135 C369 90 325 63 265 63 C175 63 115 128 105 215 L476 215 C476 223 477 232 477 240 C477 378 397 489 259 489 L259 489 Z M259 419 C342 419 389 363 403 287 L108 287 C123 363 177 419 259 419 L259 419 Z M188 679 C166 679 147 661 147 638 C147 616 166 598 188 598 C210 598 228 616 228 638 C228 661 210 679 188 679 L188 679 Z M339 679 C317 679 299 661 299 638 C299 616 317 598 339 598 C362 598 380 616 380 638 C380 661 362 679 339 679 L339 679 Z " />
<glyph glyph-name="igrave" unicode="&#xec;" horiz-adv-x="198" d="M70 0 L143 0 L143 482 L70 482 L70 0 Z M56 700 L-20 700 L79 563 L134 563 L56 700 Z " />
<glyph glyph-name="iacute" unicode="&#xed;" horiz-adv-x="191" d="M60 0 L133 0 L133 482 L60 482 L60 0 Z M148 700 L70 563 L125 563 L224 700 L148 700 Z " />
<glyph glyph-name="icircumflex" unicode="&#xee;" horiz-adv-x="211" d="M79 0 L152 0 L152 482 L79 482 L79 0 Z M256 563 L149 700 L81 700 L-25 563 L58 563 L115 643 L172 563 L256 563 Z " />
<glyph glyph-name="idieresis" unicode="&#xef;" horiz-adv-x="191" d="M60 0 L133 0 L133 482 L60 482 L60 0 Z M21 679 C-1 679 -20 661 -20 638 C-20 616 -1 598 21 598 C43 598 61 616 61 638 C61 661 43 679 21 679 L21 679 Z M172 679 C150 679 132 661 132 638 C132 616 150 598 172 598 C195 598 213 616 213 638 C213 661 195 679 172 679 L172 679 Z " />
<glyph glyph-name="eth" unicode="&#xf0;" horiz-adv-x="548" d="M476 508 C445 581 398 639 339 683 L419 764 L370 813 L279 720 C230 745 177 762 122 770 L113 704 C155 700 195 689 232 672 L155 594 L204 545 L293 636 C373 578 427 490 439 405 C398 456 337 489 261 489 C124 489 30 378 30 240 C30 103 127 -7 264 -7 C365 -7 432 45 470 123 C523 232 529 377 476 508 L476 508 Z M264 63 C165 63 103 141 103 240 C103 339 163 419 261 419 C360 419 423 350 423 240 C423 141 363 63 264 63 L264 63 Z " />
<glyph glyph-name="ntilde" unicode="&#xf1;" horiz-adv-x="505" d="M267 489 C208 489 161 465 127 426 L127 482 L55 482 L55 0 L127 0 L127 260 C127 366 181 417 255 417 C333 417 378 371 378 266 C378 193 378 0 378 0 L450 0 C450 0 450 105 450 266 C450 443 362 489 267 489 L267 489 Z M348 670 C335 622 302 639 264 660 C192 700 129 683 91 605 L150 574 C174 616 201 615 239 593 C311 552 381 542 414 650 L348 670 Z " />
<glyph glyph-name="ograve" unicode="&#xf2;" horiz-adv-x="537" d="M267 489 C130 489 35 378 35 240 C35 102 130 -8 267 -8 C405 -8 502 102 502 240 C502 378 405 489 267 489 L267 489 Z M267 63 C168 63 108 141 108 240 C108 339 168 419 267 419 C366 419 429 339 429 240 C429 141 366 63 267 63 L267 63 Z M218 700 L142 700 L241 563 L296 563 L218 700 Z " />
<glyph glyph-name="oacute" unicode="&#xf3;" horiz-adv-x="537" d="M267 489 C130 489 35 378 35 240 C35 102 130 -8 267 -8 C405 -8 502 102 502 240 C502 378 405 489 267 489 L267 489 Z M267 63 C168 63 108 141 108 240 C108 339 168 419 267 419 C366 419 429 339 429 240 C429 141 366 63 267 63 L267 63 Z M330 700 L252 563 L307 563 L406 700 L330 700 Z " />
<glyph glyph-name="ocircumflex" unicode="&#xf4;" horiz-adv-x="537" d="M267 489 C130 489 35 378 35 240 C35 102 130 -8 267 -8 C405 -8 502 102 502 240 C502 378 405 489 267 489 L267 489 Z M267 63 C168 63 108 141 108 240 C108 339 168 419 267 419 C366 419 429 339 429 240 C429 141 366 63 267 63 L267 63 Z M409 563 L302 700 L234 700 L128 563 L211 563 L268 643 L325 563 L409 563 Z " />
<glyph glyph-name="otilde" unicode="&#xf5;" horiz-adv-x="537" d="M267 489 C130 489 35 378 35 240 C35 102 130 -8 267 -8 C405 -8 502 102 502 240 C502 378 405 489 267 489 L267 489 Z M267 63 C168 63 108 141 108 240 C108 339 168 419 267 419 C366 419 429 339 429 240 C429 141 366 63 267 63 L267 63 Z M364 670 C351 622 318 639 280 660 C208 700 145 683 107 605 L166 574 C190 616 217 615 255 593 C327 552 397 542 430 650 L364 670 Z " />
<glyph glyph-name="odieresis" unicode="&#xf6;" horiz-adv-x="537" d="M267 489 C130 489 35 378 35 240 C35 102 130 -8 267 -8 C405 -8 502 102 502 240 C502 378 405 489 267 489 L267 489 Z M267 63 C168 63 108 141 108 240 C108 339 168 419 267 419 C366 419 429 339 429 240 C429 141 366 63 267 63 L267 63 Z M193 679 C171 679 152 661 152 638 C152 616 171 598 193 598 C215 598 233 616 233 638 C233 661 215 679 193 679 L193 679 Z M344 679 C322 679 304 661 304 638 C304 616 322 598 344 598 C367 598 385 616 385 638 C385 661 367 679 344 679 L344 679 Z " />
<glyph glyph-name="divide" unicode="&#xf7;" horiz-adv-x="528" d="M70 342 L70 270 L458 270 L458 342 L70 342 Z M264 436 C286 436 304 454 304 476 C304 498 286 516 264 516 C242 516 224 498 224 476 C224 454 242 436 264 436 L264 436 Z M264 177 C242 177 224 159 224 136 C224 114 242 96 264 96 C286 96 304 114 304 136 C304 159 286 177 264 177 L264 177 Z " />
<glyph glyph-name="oslash" unicode="&#xf8;" horiz-adv-x="537" d="M512 458 L458 506 L403 445 C365 473 319 489 266 489 C128 489 34 378 34 240 C34 182 51 130 80 88 L23 24 L76 -24 L131 36 C168 9 214 -7 266 -7 C403 -7 501 103 501 240 C501 298 483 351 454 393 L512 458 Z M107 240 C107 339 167 419 266 419 C301 419 331 409 355 392 L130 143 C115 171 107 204 107 240 L107 240 Z M428 240 C428 141 365 63 266 63 C232 63 202 72 178 88 L404 338 C419 310 428 276 428 240 L428 240 Z " />
<glyph glyph-name="ugrave" unicode="&#xf9;" horiz-adv-x="500" d="M373 482 L373 222 C373 115 319 65 245 65 C167 65 123 111 123 216 C123 288 123 482 123 482 L50 482 C50 482 50 376 50 216 C50 39 141 -8 236 -8 C295 -8 340 17 373 56 L373 0 L445 0 L445 482 L373 482 Z M217 700 L141 700 L240 563 L295 563 L217 700 Z " />
<glyph glyph-name="uacute" unicode="&#xfa;" horiz-adv-x="500" d="M373 482 L373 222 C373 115 319 65 245 65 C167 65 123 111 123 216 C123 288 123 482 123 482 L50 482 C50 482 50 376 50 216 C50 39 141 -8 236 -8 C295 -8 340 17 373 56 L373 0 L445 0 L445 482 L373 482 Z M299 700 L221 563 L276 563 L375 700 L299 700 Z " />
<glyph glyph-name="ucircumflex" unicode="&#xfb;" horiz-adv-x="500" d="M373 482 L373 222 C373 115 319 65 245 65 C167 65 123 111 123 216 C123 288 123 482 123 482 L50 482 C50 482 50 376 50 216 C50 39 141 -8 236 -8 C295 -8 340 17 373 56 L373 0 L445 0 L445 482 L373 482 Z M398 563 L291 700 L223 700 L117 563 L200 563 L257 643 L314 563 L398 563 Z " />
<glyph glyph-name="udieresis" unicode="&#xfc;" horiz-adv-x="500" d="M373 482 L373 222 C373 115 319 65 245 65 C167 65 123 111 123 216 C123 288 123 482 123 482 L50 482 C50 482 50 376 50 216 C50 39 141 -8 236 -8 C295 -8 340 17 373 56 L373 0 L445 0 L445 482 L373 482 Z M182 679 C160 679 141 661 141 638 C141 616 160 598 182 598 C204 598 222 616 222 638 C222 661 204 679 182 679 L182 679 Z M333 679 C311 679 293 661 293 638 C293 616 311 598 333 598 C356 598 374 616 374 638 C374 661 356 679 333 679 L333 679 Z " />
<glyph glyph-name="yacute" unicode="&#xfd;" horiz-adv-x="443" d="M361 482 L224 101 L88 482 L10 482 L186 0 C138 -124 119 -143 51 -130 L38 -201 C96 -216 150 -207 188 -156 C216 -117 239 -63 269 15 L438 482 L361 482 Z M275 700 L197 563 L252 563 L351 700 L275 700 Z " />
<glyph glyph-name="thorn" unicode="&#xfe;" horiz-adv-x="547" d="M286 489 C217 489 163 461 127 416 L127 700 L55 700 L55 -218 L127 -218 L127 65 C163 20 217 -7 286 -7 C424 -7 512 103 512 240 C512 378 424 489 286 489 L286 489 Z M286 63 C187 63 130 141 130 240 C130 339 187 419 286 419 C385 419 439 339 439 240 C439 141 385 63 286 63 L286 63 Z " />
<glyph glyph-name="ydieresis" unicode="&#xff;" horiz-adv-x="443" d="M361 482 L224 101 L88 482 L10 482 L186 0 C138 -124 119 -143 51 -130 L38 -201 C96 -216 150 -207 188 -156 C216 -117 239 -63 269 15 L438 482 L361 482 Z M149 679 C127 679 108 661 108 638 C108 616 127 598 149 598 C171 598 189 616 189 638 C189 661 171 679 149 679 L149 679 Z M300 679 C278 679 260 661 260 638 C260 616 278 598 300 598 C323 598 341 616 341 638 C341 661 323 679 300 679 L300 679 Z " />
<glyph glyph-name="Amacron" unicode="&#x100;" horiz-adv-x="655" d="M545 0 L625 0 L360 700 L294 700 L30 0 L110 0 L186 203 L469 203 L545 0 Z M213 275 L327 585 L442 275 L213 275 Z M203 877 L203 805 L453 805 L453 877 L203 877 Z " />
<glyph glyph-name="amacron" unicode="&#x101;" horiz-adv-x="470" d="M425 0 C425 0 424 225 424 323 C424 425 359 489 247 489 C129 489 73 421 60 356 L124 341 C136 382 160 424 245 424 C337 424 354 371 355 338 C356 306 327 292 252 280 C104 256 30 213 30 118 C30 37 96 -7 185 -7 C254 -7 310 21 353 58 L353 0 L425 0 Z M191 61 C167 61 106 70 106 123 C106 176 158 197 262 214 C298 220 329 224 355 229 L355 207 C356 120 285 61 191 61 L191 61 Z M118 677 L118 605 L368 605 L368 677 L118 677 Z " />
<glyph glyph-name="Abreve" unicode="&#x102;" horiz-adv-x="655" d="M545 0 L625 0 L360 700 L294 700 L30 0 L110 0 L186 203 L469 203 L545 0 Z M213 275 L327 585 L442 275 L213 275 Z M386 900 C386 860 363 830 328 830 C291 830 270 860 270 900 L207 900 C207 827 254 769 328 769 C401 769 449 827 449 900 L386 900 Z " />
<glyph glyph-name="abreve" unicode="&#x103;" horiz-adv-x="470" d="M425 0 C425 0 424 225 424 323 C424 425 359 489 247 489 C129 489 73 421 60 356 L124 341 C136 382 160 424 245 424 C337 424 354 371 355 338 C356 306 327 292 252 280 C104 256 30 213 30 118 C30 37 96 -7 185 -7 C254 -7 310 21 353 58 L353 0 L425 0 Z M191 61 C167 61 106 70 106 123 C106 176 158 197 262 214 C298 220 329 224 355 229 L355 207 C356 120 285 61 191 61 L191 61 Z M310 700 C310 660 287 630 252 630 C215 630 194 660 194 700 L131 700 C131 627 178 569 252 569 C325 569 373 627 373 700 L310 700 Z " />
<glyph glyph-name="Aogonek" unicode="&#x104;" horiz-adv-x="655" d="M537 -116 C521 -75 574 -19 616 0 L625 0 L361 700 L295 700 L30 0 L110 0 L186 203 L469 203 L545 0 L556 0 C534 -13 484 -59 480 -113 C475 -169 517 -203 568 -203 C583 -203 599 -200 614 -194 L614 -125 C589 -140 547 -144 537 -116 L537 -116 Z M213 275 L328 585 L443 275 L213 275 Z " />
<glyph glyph-name="aogonek" unicode="&#x105;" horiz-adv-x="471" d="M342 -116 C326 -75 379 -19 421 0 L426 0 C426 0 425 225 425 323 C425 425 360 490 248 490 C129 490 74 421 60 356 L125 341 C136 382 160 424 245 424 C338 424 355 371 356 338 C357 306 328 292 252 280 C104 256 30 213 30 117 C30 37 97 -7 186 -7 C254 -7 310 21 353 58 L353 0 L361 0 C339 -13 290 -59 285 -113 C280 -169 322 -203 373 -203 C388 -203 404 -200 419 -194 L419 -125 C394 -140 353 -144 342 -116 L342 -116 Z M356 207 C357 120 286 61 192 61 C168 61 107 70 107 123 C107 176 158 197 263 214 C298 220 330 224 356 229 L356 207 Z " />
<glyph glyph-name="Cacute" unicode="&#x106;" horiz-adv-x="709" d="M390 63 C232 63 119 191 119 349 C119 507 232 635 390 635 C486 635 567 587 615 515 L679 546 C619 643 514 706 390 706 C193 706 45 546 45 349 C45 152 193 -8 390 -8 C514 -8 619 56 679 152 L615 184 C567 111 486 63 390 63 L390 63 Z M433 900 L355 763 L410 763 L509 900 L433 900 Z " />
<glyph glyph-name="cacute" unicode="&#x107;" horiz-adv-x="485" d="M262 63 C163 63 103 141 103 240 C103 339 163 419 261 419 C321 419 368 390 397 346 L460 376 C420 444 349 489 261 489 C124 489 30 378 30 240 C30 103 124 -7 262 -7 C349 -7 420 36 460 104 L397 135 C368 90 321 63 262 63 L262 63 Z M306 700 L228 563 L283 563 L382 700 L306 700 Z " />
<glyph glyph-name="Ccircumflex" unicode="&#x108;" horiz-adv-x="709" d="M390 63 C232 63 119 191 119 349 C119 507 232 635 390 635 C486 635 567 587 615 515 L679 546 C619 643 514 706 390 706 C193 706 45 546 45 349 C45 152 193 -8 390 -8 C514 -8 619 56 679 152 L615 184 C567 111 486 63 390 63 L390 63 Z M533 763 L426 900 L358 900 L252 763 L335 763 L392 843 L449 763 L533 763 Z " />
<glyph glyph-name="ccircumflex" unicode="&#x109;" horiz-adv-x="485" d="M262 63 C163 63 103 141 103 240 C103 339 163 419 261 419 C321 419 368 390 397 346 L460 376 C420 444 349 489 261 489 C124 489 30 378 30 240 C30 103 124 -7 262 -7 C349 -7 420 36 460 104 L397 135 C368 90 321 63 262 63 L262 63 Z M396 563 L289 700 L221 700 L115 563 L198 563 L255 643 L312 563 L396 563 Z " />
<glyph glyph-name="Cdotaccent" unicode="&#x10a;" horiz-adv-x="709" d="M390 63 C232 63 119 191 119 349 C119 507 232 635 390 635 C486 635 567 587 615 515 L679 546 C619 643 514 706 390 706 C193 706 45 546 45 349 C45 152 193 -8 390 -8 C514 -8 619 56 679 152 L615 184 C567 111 486 63 390 63 L390 63 Z M392 879 C370 879 352 861 352 838 C352 816 370 798 392 798 C414 798 432 816 432 838 C432 861 414 879 392 879 L392 879 Z " />
<glyph glyph-name="cdotaccent" unicode="&#x10b;" horiz-adv-x="485" d="M262 63 C163 63 103 141 103 240 C103 339 163 419 261 419 C321 419 368 390 397 346 L460 376 C420 444 349 489 261 489 C124 489 30 378 30 240 C30 103 124 -7 262 -7 C349 -7 420 36 460 104 L397 135 C368 90 321 63 262 63 L262 63 Z M255 679 C233 679 215 661 215 638 C215 616 233 598 255 598 C277 598 295 616 295 638 C295 661 277 679 255 679 L255 679 Z " />
<glyph glyph-name="Ccaron" unicode="&#x10c;" horiz-adv-x="709" d="M390 63 C232 63 119 191 119 349 C119 507 232 635 390 635 C486 635 567 587 615 515 L679 546 C619 643 514 706 390 706 C193 706 45 546 45 349 C45 152 193 -8 390 -8 C514 -8 619 56 679 152 L615 184 C567 111 486 63 390 63 L390 63 Z M533 900 L449 900 L392 819 L335 900 L251 900 L358 763 L426 763 L533 900 Z " />
<glyph glyph-name="ccaron" unicode="&#x10d;" horiz-adv-x="485" d="M262 63 C163 63 103 141 103 240 C103 339 163 419 261 419 C321 419 368 390 397 346 L460 376 C420 444 349 489 261 489 C124 489 30 378 30 240 C30 103 124 -7 262 -7 C349 -7 420 36 460 104 L397 135 C368 90 321 63 262 63 L262 63 Z M396 700 L312 700 L255 619 L198 700 L114 700 L221 563 L289 563 L396 700 Z " />
<glyph glyph-name="Dcaron" unicode="&#x10e;" horiz-adv-x="673" d="M280 700 L65 700 L65 0 L280 0 C495 0 633 156 633 349 C633 542 498 700 280 700 L280 700 Z M274 72 C206 72 164 72 137 72 L137 628 L275 628 C449 628 556 503 556 349 C556 196 453 72 274 72 L274 72 Z M440 900 L356 900 L299 819 L242 900 L158 900 L265 763 L333 763 L440 900 Z " />
<glyph glyph-name="dcaron" unicode="&#x10f;" horiz-adv-x="613" d="M415 700 L415 416 C379 461 325 489 256 489 C118 489 30 378 30 240 C30 103 118 -7 256 -7 C325 -7 379 20 415 65 L415 0 L487 0 L487 700 L415 700 Z M256 63 C157 63 103 141 103 240 C103 339 157 419 256 419 C355 419 412 339 412 240 C412 141 355 63 256 63 L256 63 Z M557 532 L604 532 L673 700 L597 700 L557 532 Z " />
<glyph glyph-name="Dcroat" unicode="&#x110;" horiz-adv-x="708" d="M315 700 L100 700 L100 386 L10 386 L10 314 L100 314 L100 0 L316 0 C531 0 668 156 668 349 C668 542 534 700 315 700 L315 700 Z M309 72 C242 72 199 72 173 72 L173 314 L340 314 L340 386 L173 386 L173 628 L310 628 C485 628 594 503 594 349 C594 196 488 72 309 72 L309 72 Z " />
<glyph glyph-name="dcroat" unicode="&#x111;" horiz-adv-x="542" d="M574 626 L487 626 L487 700 L415 700 L415 626 L298 626 L298 554 L415 554 L415 416 C379 461 325 489 256 489 C118 489 30 378 30 240 C30 103 118 -7 256 -7 C325 -7 379 20 415 65 L415 0 L487 0 L487 554 L574 554 L574 626 Z M256 63 C157 63 103 141 103 240 C103 339 157 419 256 419 C355 419 412 339 412 240 C412 141 355 63 256 63 L256 63 Z " />
<glyph glyph-name="Emacron" unicode="&#x112;" horiz-adv-x="575" d="M132 72 L132 314 L488 314 L488 386 L132 386 L132 628 L519 628 L519 700 L60 700 L60 0 L525 0 L525 72 L132 72 Z M178 877 L178 805 L428 805 L428 877 L178 877 Z " />
<glyph glyph-name="emacron" unicode="&#x113;" horiz-adv-x="512" d="M259 489 C122 489 30 378 30 240 C30 103 128 -7 265 -7 C353 -7 421 36 461 104 L398 135 C369 90 325 63 265 63 C175 63 115 128 105 215 L476 215 C476 223 477 232 477 240 C477 378 397 489 259 489 L259 489 Z M259 419 C342 419 389 363 403 287 L108 287 C123 363 177 419 259 419 L259 419 Z M139 677 L139 605 L389 605 L389 677 L139 677 Z " />
<glyph glyph-name="Ebreve" unicode="&#x114;" horiz-adv-x="575" d="M132 72 L132 314 L488 314 L488 386 L132 386 L132 628 L519 628 L519 700 L60 700 L60 0 L525 0 L525 72 L132 72 Z M361 900 C361 860 338 830 303 830 C266 830 245 860 245 900 L182 900 C182 827 229 769 303 769 C376 769 424 827 424 900 L361 900 Z " />
<glyph glyph-name="ebreve" unicode="&#x115;" horiz-adv-x="512" d="M259 489 C122 489 30 378 30 240 C30 103 128 -7 265 -7 C353 -7 421 36 461 104 L398 135 C369 90 325 63 265 63 C175 63 115 128 105 215 L476 215 C476 223 477 232 477 240 C477 378 397 489 259 489 L259 489 Z M259 419 C342 419 389 363 403 287 L108 287 C123 363 177 419 259 419 L259 419 Z M322 700 C322 660 299 630 264 630 C227 630 206 660 206 700 L143 700 C143 627 190 569 264 569 C337 569 385 627 385 700 L322 700 Z " />
<glyph glyph-name="Edotaccent" unicode="&#x116;" horiz-adv-x="575" d="M132 72 L132 314 L488 314 L488 386 L132 386 L132 628 L519 628 L519 700 L60 700 L60 0 L525 0 L525 72 L132 72 Z M303 879 C281 879 263 861 263 838 C263 816 281 798 303 798 C325 798 343 816 343 838 C343 861 325 879 303 879 L303 879 Z " />
<glyph glyph-name="edotaccent" unicode="&#x117;" horiz-adv-x="512" d="M259 489 C122 489 30 378 30 240 C30 103 128 -7 265 -7 C353 -7 421 36 461 104 L398 135 C369 90 325 63 265 63 C175 63 115 128 105 215 L476 215 C476 223 477 232 477 240 C477 378 397 489 259 489 L259 489 Z M259 419 C342 419 389 363 403 287 L108 287 C123 363 177 419 259 419 L259 419 Z M264 679 C242 679 224 661 224 638 C224 616 242 598 264 598 C286 598 304 616 304 638 C304 661 286 679 264 679 L264 679 Z " />
<glyph glyph-name="Eogonek" unicode="&#x118;" horiz-adv-x="575" d="M132 72 L132 314 L488 314 L488 386 L132 386 L132 628 L520 628 L520 700 L60 700 L60 0 L465 0 C443 -13 393 -59 389 -113 C384 -169 426 -203 477 -203 C492 -203 508 -200 523 -194 L523 -125 C498 -140 456 -144 446 -116 C430 -75 483 -19 525 0 L525 72 L132 72 Z " />
<glyph glyph-name="eogonek" unicode="&#x119;" horiz-adv-x="512" d="M259 490 C121 490 30 378 30 240 C30 103 127 -7 265 -7 C284 -7 302 -5 319 -1 C284 -33 256 -74 253 -113 C248 -169 290 -203 341 -203 C356 -203 372 -200 388 -194 L388 -125 C362 -140 321 -144 310 -116 C296 -78 354 -8 401 37 C425 55 445 78 461 104 L397 135 C369 90 324 63 265 63 C174 63 114 128 105 215 L475 215 C476 223 477 232 477 240 C477 378 397 490 259 490 L259 490 Z M259 420 C342 420 389 364 402 288 L108 288 C123 364 176 420 259 420 L259 420 Z " />
<glyph glyph-name="Ecaron" unicode="&#x11a;" horiz-adv-x="575" d="M132 72 L132 314 L488 314 L488 386 L132 386 L132 628 L519 628 L519 700 L60 700 L60 0 L525 0 L525 72 L132 72 Z M444 900 L360 900 L303 819 L246 900 L162 900 L269 763 L337 763 L444 900 Z " />
<glyph glyph-name="ecaron" unicode="&#x11b;" horiz-adv-x="512" d="M259 489 C122 489 30 378 30 240 C30 103 128 -7 265 -7 C353 -7 421 36 461 104 L398 135 C369 90 325 63 265 63 C175 63 115 128 105 215 L476 215 C476 223 477 232 477 240 C477 378 397 489 259 489 L259 489 Z M259 419 C342 419 389 363 403 287 L108 287 C123 363 177 419 259 419 L259 419 Z M405 700 L321 700 L264 619 L207 700 L123 700 L230 563 L298 563 L405 700 Z " />
<glyph glyph-name="Gcircumflex" unicode="&#x11c;" horiz-adv-x="715" d="M670 359 L379 359 L379 287 L598 287 L598 168 C551 107 469 63 381 63 C223 63 109 191 109 349 C109 507 223 635 381 635 C477 635 557 587 606 515 L670 546 C609 643 505 706 381 706 C184 706 35 546 35 349 C35 152 184 -8 381 -8 C505 -8 610 56 670 152 L670 359 Z M513 763 L406 900 L338 900 L232 763 L315 763 L372 843 L429 763 L513 763 Z " />
<glyph glyph-name="gcircumflex" unicode="&#x11d;" horiz-adv-x="542" d="M414 482 L414 417 C378 462 324 489 256 489 C118 489 30 378 30 240 C30 103 118 -7 256 -7 C324 -7 378 20 414 65 L414 26 C414 -95 356 -156 258 -156 C200 -156 144 -128 117 -84 L57 -120 C96 -184 174 -226 258 -226 C403 -226 487 -134 487 20 L487 482 L414 482 Z M256 63 C157 63 103 141 103 240 C103 339 157 419 256 419 C354 419 411 339 411 240 C411 141 354 63 256 63 L256 63 Z M399 563 L292 700 L224 700 L118 563 L201 563 L258 643 L315 563 L399 563 Z " />
<glyph glyph-name="Gbreve" unicode="&#x11e;" horiz-adv-x="715" d="M670 359 L379 359 L379 287 L598 287 L598 168 C551 107 469 63 381 63 C223 63 109 191 109 349 C109 507 223 635 381 635 C477 635 557 587 606 515 L670 546 C609 643 505 706 381 706 C184 706 35 546 35 349 C35 152 184 -8 381 -8 C505 -8 610 56 670 152 L670 359 Z M431 900 C431 860 408 830 373 830 C336 830 315 860 315 900 L252 900 C252 827 299 769 373 769 C446 769 494 827 494 900 L431 900 Z " />
<glyph glyph-name="gbreve" unicode="&#x11f;" horiz-adv-x="542" d="M414 482 L414 417 C378 462 324 489 256 489 C118 489 30 378 30 240 C30 103 118 -7 256 -7 C324 -7 378 20 414 65 L414 26 C414 -95 356 -156 258 -156 C200 -156 144 -128 117 -84 L57 -120 C96 -184 174 -226 258 -226 C403 -226 487 -134 487 20 L487 482 L414 482 Z M256 63 C157 63 103 141 103 240 C103 339 157 419 256 419 C354 419 411 339 411 240 C411 141 354 63 256 63 L256 63 Z M327 700 C327 660 304 630 269 630 C232 630 211 660 211 700 L148 700 C148 627 195 569 269 569 C342 569 390 627 390 700 L327 700 Z " />
<glyph glyph-name="Gdotaccent" unicode="&#x120;" horiz-adv-x="715" d="M670 359 L379 359 L379 287 L598 287 L598 168 C551 107 469 63 381 63 C223 63 109 191 109 349 C109 507 223 635 381 635 C477 635 557 587 606 515 L670 546 C609 643 505 706 381 706 C184 706 35 546 35 349 C35 152 184 -8 381 -8 C505 -8 610 56 670 152 L670 359 Z M373 879 C351 879 333 861 333 838 C333 816 351 798 373 798 C395 798 413 816 413 838 C413 861 395 879 373 879 L373 879 Z " />
<glyph glyph-name="gdotaccent" unicode="&#x121;" horiz-adv-x="542" d="M414 482 L414 417 C378 462 324 489 256 489 C118 489 30 378 30 240 C30 103 118 -7 256 -7 C324 -7 378 20 414 65 L414 26 C414 -95 356 -156 258 -156 C200 -156 144 -128 117 -84 L57 -120 C96 -184 174 -226 258 -226 C403 -226 487 -134 487 20 L487 482 L414 482 Z M256 63 C157 63 103 141 103 240 C103 339 157 419 256 419 C354 419 411 339 411 240 C411 141 354 63 256 63 L256 63 Z M259 679 C237 679 219 661 219 638 C219 616 237 598 259 598 C281 598 299 616 299 638 C299 661 281 679 259 679 L259 679 Z " />
<glyph glyph-name="Gcommaaccent" unicode="&#x122;" horiz-adv-x="715" d="M670 359 L379 359 L379 287 L598 287 L598 168 C551 107 469 63 381 63 C223 63 109 191 109 349 C109 507 223 635 381 635 C477 635 557 587 606 515 L670 546 C609 643 505 706 381 706 C184 706 35 546 35 349 C35 152 184 -8 381 -8 C505 -8 610 56 670 152 L670 359 Z M332 -51 L300 -183 L350 -183 L405 -51 L332 -51 Z " />
<glyph glyph-name="gcommaaccent" unicode="&#x123;" horiz-adv-x="542" d="M414 482 L414 417 C378 462 324 489 256 489 C118 489 30 378 30 240 C30 103 118 -7 256 -7 C324 -7 378 20 414 65 L414 26 C414 -95 356 -156 258 -156 C200 -156 144 -128 117 -84 L57 -120 C96 -184 174 -226 258 -226 C403 -226 487 -134 487 20 L487 482 L414 482 Z M256 63 C157 63 103 141 103 240 C103 339 157 419 256 419 C354 419 411 339 411 240 C411 141 354 63 256 63 L256 63 Z M233 582 L308 582 L349 750 L302 750 L233 582 Z " />
<glyph glyph-name="Hcircumflex" unicode="&#x124;" horiz-adv-x="660" d="M523 700 L523 386 L137 386 L137 700 L65 700 L65 0 L137 0 L137 314 L523 314 L523 0 L595 0 L595 700 L523 700 Z M471 763 L364 900 L296 900 L190 763 L273 763 L330 843 L387 763 L471 763 Z " />
<glyph glyph-name="hcircumflex" unicode="&#x125;" horiz-adv-x="500" d="M267 489 C208 489 161 465 128 426 L128 700 L55 700 L55 0 L128 0 L128 260 C128 367 182 417 256 417 C334 417 378 371 378 266 C378 194 378 0 378 0 L450 0 C450 0 450 106 450 266 C450 443 363 489 267 489 L267 489 Z M399 764 L292 901 L224 901 L118 764 L201 764 L258 844 L315 764 L399 764 Z " />
<glyph glyph-name="Hbar" unicode="&#x126;" horiz-adv-x="686" d="M676 574 L608 574 L608 700 L536 700 L536 574 L150 574 L150 700 L78 700 L78 574 L10 574 L10 502 L78 502 L78 0 L150 0 L150 314 L536 314 L536 0 L608 0 L608 502 L676 502 L676 574 Z M536 386 L150 386 L150 502 L536 502 L536 386 Z " />
<glyph glyph-name="hbar" unicode="&#x127;" horiz-adv-x="550" d="M312 489 C254 489 206 465 173 426 L173 554 L290 554 L290 626 L173 626 L173 700 L100 700 L100 626 L15 626 L15 554 L100 554 L100 0 L173 0 L173 260 C173 366 227 417 301 417 C379 417 423 371 423 266 C423 194 423 0 423 0 L495 0 C495 0 495 105 495 266 C495 443 408 489 312 489 L312 489 Z " />
<glyph glyph-name="Itilde" unicode="&#x128;" horiz-adv-x="203" d="M65 700 L65 0 L137 0 L137 700 L65 700 Z M197 870 C184 822 151 839 113 860 C41 900 -22 883 -60 805 L-1 774 C23 816 50 815 88 793 C160 752 230 742 263 850 L197 870 Z " />
<glyph glyph-name="itilde" unicode="&#x129;" horiz-adv-x="228" d="M95 0 L168 0 L168 482 L95 482 L95 0 Z M227 670 C214 622 181 639 143 660 C71 700 8 683 -30 605 L29 574 C53 616 80 615 118 593 C190 552 260 542 293 650 L227 670 Z " />
<glyph glyph-name="Imacron" unicode="&#x12a;" horiz-adv-x="202" d="M69 700 L69 0 L141 0 L141 700 L69 700 Z M-20 877 L-20 805 L230 805 L230 877 L-20 877 Z " />
<glyph glyph-name="imacron" unicode="&#x12b;" horiz-adv-x="200" d="M68 0 L141 0 L141 482 L68 482 L68 0 Z M-20 677 L-20 605 L230 605 L230 677 L-20 677 Z " />
<glyph glyph-name="Ibreve" unicode="&#x12c;" horiz-adv-x="218" d="M75 700 L75 0 L147 0 L147 700 L75 700 Z M169 900 C169 860 146 830 111 830 C74 830 53 860 53 900 L-10 900 C-10 827 37 769 111 769 C184 769 232 827 232 900 L169 900 Z " />
<glyph glyph-name="ibreve" unicode="&#x12d;" horiz-adv-x="192" d="M64 0 L137 0 L137 482 L64 482 L64 0 Z M159 700 C159 660 136 630 101 630 C64 630 43 660 43 700 L-20 700 C-20 627 27 569 101 569 C174 569 222 627 222 700 L159 700 Z " />
<glyph glyph-name="Iogonek" unicode="&#x12e;" horiz-adv-x="202" d="M132 0 L137 0 L137 700 L64 700 L64 0 L71 0 C49 -13 0 -59 -5 -113 C-10 -169 32 -203 83 -203 C99 -203 114 -200 130 -194 L130 -125 C104 -140 63 -144 52 -116 C37 -75 89 -19 132 0 L132 0 Z " />
<glyph glyph-name="iogonek" unicode="&#x12f;" horiz-adv-x="196" d="M134 0 L137 0 L137 482 L65 482 L65 0 L73 0 C51 -13 2 -59 -3 -113 C-8 -169 34 -203 85 -203 C100 -203 116 -200 132 -194 L132 -125 C106 -140 65 -144 54 -116 C39 -75 91 -19 134 0 L134 0 Z M141 627 C141 649 123 667 101 667 C79 667 61 649 61 627 C61 605 79 587 101 587 C123 587 141 605 141 627 L141 627 Z " />
<glyph glyph-name="Idotaccent" unicode="&#x130;" horiz-adv-x="202" d="M65 700 L65 0 L137 0 L137 700 L65 700 Z M101 879 C79 879 61 861 61 838 C61 816 79 798 101 798 C123 798 141 816 141 838 C141 861 123 879 101 879 L101 879 Z " />
<glyph glyph-name="dotlessi" unicode="&#x131;" horiz-adv-x="183" d="M55 0 L128 0 L128 482 L55 482 L55 0 Z " />
<glyph glyph-name="Jcircumflex" unicode="&#x134;" horiz-adv-x="407" d="M347 700 L274 700 C274 700 274 282 274 185 C274 101 237 64 178 64 C128 64 92 89 74 110 L21 68 C38 41 99 -8 181 -8 C291 -8 347 64 347 187 C347 306 347 700 347 700 L347 700 Z M451 763 L344 900 L276 900 L170 763 L253 763 L310 843 L367 763 L451 763 Z " />
<glyph glyph-name="jcircumflex" unicode="&#x135;" horiz-adv-x="207" d="M82 -65 C82 -105 80 -128 62 -143 C47 -156 16 -158 -14 -132 L-55 -187 C-20 -215 22 -228 53 -225 C116 -217 155 -179 155 -67 C155 20 155 482 155 482 L82 482 C82 482 82 5 82 -65 L82 -65 Z M257 563 L150 700 L82 700 L-24 563 L59 563 L116 643 L173 563 L257 563 Z " />
<glyph glyph-name="Kcommaaccent" unicode="&#x136;" horiz-adv-x="594" d="M496 0 L584 0 L294 407 L558 700 L462 700 L138 342 L138 700 L65 700 L65 0 L138 0 L138 234 L244 352 L496 0 Z M273 -76 L241 -208 L291 -208 L346 -76 L273 -76 Z " />
<glyph glyph-name="kcommaaccent" unicode="&#x137;" horiz-adv-x="473" d="M369 0 L458 0 L249 288 L428 482 L330 482 L127 262 L127 700 L55 700 L55 0 L127 0 L127 156 L199 234 L369 0 Z M206 -51 L174 -183 L224 -183 L279 -51 L206 -51 Z " />
<glyph glyph-name="Lacute" unicode="&#x139;" horiz-adv-x="490" d="M132 72 L132 700 L60 700 L60 0 L480 0 L480 72 L132 72 Z M151 900 L73 763 L128 763 L227 900 L151 900 Z " />
<glyph glyph-name="lacute" unicode="&#x13a;" horiz-adv-x="182" d="M55 750 L55 0 L127 0 L127 750 L55 750 Z M145 961 L67 824 L122 824 L221 961 L145 961 Z " />
<glyph glyph-name="Lcommaaccent" unicode="&#x13b;" horiz-adv-x="490" d="M132 72 L132 700 L60 700 L60 0 L480 0 L480 72 L132 72 Z M249 -76 L217 -208 L267 -208 L322 -76 L249 -76 Z " />
<glyph glyph-name="lcommaaccent" unicode="&#x13c;" horiz-adv-x="192" d="M61 750 L61 0 L133 0 L133 750 L61 750 Z M58 -51 L26 -183 L76 -183 L131 -51 L58 -51 Z " />
<glyph glyph-name="Lcaron" unicode="&#x13d;" horiz-adv-x="490" d="M132 72 L132 700 L60 700 L60 0 L480 0 L480 72 L132 72 Z M207 532 L254 532 L323 700 L247 700 L207 532 Z " />
<glyph glyph-name="lcaron" unicode="&#x13e;" horiz-adv-x="256" d="M55 750 L55 0 L127 0 L127 750 L55 750 Z M205 532 L252 532 L321 700 L245 700 L205 532 Z " />
<glyph glyph-name="Ldot" unicode="&#x13f;" horiz-adv-x="490" d="M308 389 C286 389 268 371 268 348 C268 326 286 308 308 308 C330 308 348 326 348 348 C348 371 330 389 308 389 L308 389 Z M132 72 L132 700 L60 700 L60 0 L480 0 L480 72 L132 72 Z " />
<glyph glyph-name="ldot" unicode="&#x140;" horiz-adv-x="324" d="M55 750 L55 0 L127 0 L127 750 L55 750 Z M249 274 C227 274 209 256 209 233 C209 211 227 193 249 193 C271 193 289 211 289 233 C289 256 271 274 249 274 L249 274 Z " />
<glyph glyph-name="Lslash" unicode="&#x141;" horiz-adv-x="565" d="M206 72 L206 287 L422 434 L422 522 L206 374 L206 700 L134 700 L134 325 L10 240 L10 153 L134 237 L134 0 L555 0 L555 72 L206 72 Z " />
<glyph glyph-name="lslash" unicode="&#x142;" horiz-adv-x="299" d="M284 515 L186 447 L186 750 L113 750 L113 398 L15 331 L15 243 L113 310 L113 0 L186 0 L186 360 L284 427 L284 515 Z " />
<glyph glyph-name="Nacute" unicode="&#x143;" horiz-adv-x="662" d="M525 700 L525 134 L131 700 L65 700 L65 0 L137 0 L137 568 L531 0 L597 0 L597 700 L525 700 Z M392 900 L314 763 L369 763 L468 900 L392 900 Z " />
<glyph glyph-name="nacute" unicode="&#x144;" horiz-adv-x="505" d="M267 489 C208 489 161 465 127 426 L127 482 L55 482 L55 0 L127 0 L127 260 C127 366 181 417 255 417 C333 417 378 371 378 266 C378 193 378 0 378 0 L450 0 C450 0 450 105 450 266 C450 443 362 489 267 489 L267 489 Z M314 700 L236 563 L291 563 L390 700 L314 700 Z " />
<glyph glyph-name="Ncommaaccent" unicode="&#x145;" horiz-adv-x="662" d="M525 700 L525 134 L131 700 L65 700 L65 0 L137 0 L137 568 L531 0 L597 0 L597 700 L525 700 Z M300 -76 L268 -208 L318 -208 L373 -76 L300 -76 Z " />
<glyph glyph-name="ncommaaccent" unicode="&#x146;" horiz-adv-x="505" d="M267 489 C208 489 161 465 127 426 L127 482 L55 482 L55 0 L127 0 L127 260 C127 366 181 417 255 417 C333 417 378 371 378 266 C378 193 378 0 378 0 L450 0 C450 0 450 105 450 266 C450 443 362 489 267 489 L267 489 Z M227 -51 L195 -183 L245 -183 L300 -51 L227 -51 Z " />
<glyph glyph-name="Ncaron" unicode="&#x147;" horiz-adv-x="662" d="M525 700 L525 134 L131 700 L65 700 L65 0 L137 0 L137 568 L531 0 L597 0 L597 700 L525 700 Z M482 900 L398 900 L341 819 L284 900 L200 900 L307 763 L375 763 L482 900 Z " />
<glyph glyph-name="ncaron" unicode="&#x148;" horiz-adv-x="505" d="M267 489 C208 489 161 465 127 426 L127 482 L55 482 L55 0 L127 0 L127 260 C127 366 181 417 255 417 C333 417 378 371 378 266 C378 193 378 0 378 0 L450 0 C450 0 450 105 450 266 C450 443 362 489 267 489 L267 489 Z M394 700 L310 700 L253 619 L196 700 L112 700 L219 563 L287 563 L394 700 Z " />
<glyph glyph-name="napostrophe" unicode="&#x149;" horiz-adv-x="587" d="M349 489 C290 489 243 465 209 426 L209 482 L137 482 L137 0 L209 0 L209 260 C209 366 263 417 337 417 C415 417 460 371 460 266 C460 193 460 0 460 0 L532 0 C532 0 532 105 532 266 C532 443 444 489 349 489 L349 489 Z M47 580 L15 448 L65 448 L120 580 L47 580 Z " />
<glyph glyph-name="Eng" unicode="&#x14a;" horiz-adv-x="662" d="M525 700 L525 131 L131 700 L65 700 L65 0 L137 0 L137 571 L525 8 C525 -13 525 -29 525 -39 C525 -79 522 -101 505 -117 C490 -130 458 -131 429 -106 L388 -161 C423 -189 464 -201 496 -198 C554 -193 597 -152 597 -41 L597 700 L525 700 Z " />
<glyph glyph-name="eng" unicode="&#x14b;" horiz-adv-x="505" d="M267 489 C209 489 161 465 128 426 L128 482 L55 482 L55 0 L128 0 L128 260 C128 366 182 417 256 417 C334 417 378 371 378 266 L378 -39 C378 -79 376 -101 358 -117 C343 -130 311 -131 282 -106 L241 -161 C276 -189 318 -201 349 -198 C407 -193 450 -152 450 -41 L450 266 C450 443 363 489 267 489 L267 489 Z " />
<glyph glyph-name="Omacron" unicode="&#x14c;" horiz-adv-x="769" d="M385 706 C188 706 45 546 45 349 C45 152 188 -8 385 -8 C582 -8 724 152 724 349 C724 546 582 706 385 706 L385 706 Z M385 63 C227 63 119 191 119 349 C119 507 227 635 385 635 C542 635 650 507 650 349 C650 191 542 63 385 63 L385 63 Z M259 877 L259 805 L509 805 L509 877 L259 877 Z " />
<glyph glyph-name="omacron" unicode="&#x14d;" horiz-adv-x="537" d="M267 489 C130 489 35 378 35 240 C35 102 130 -8 267 -8 C405 -8 502 102 502 240 C502 378 405 489 267 489 L267 489 Z M267 63 C168 63 108 141 108 240 C108 339 168 419 267 419 C366 419 429 339 429 240 C429 141 366 63 267 63 L267 63 Z M144 677 L144 605 L394 605 L394 677 L144 677 Z " />
<glyph glyph-name="Obreve" unicode="&#x14e;" horiz-adv-x="769" d="M385 706 C188 706 45 546 45 349 C45 152 188 -8 385 -8 C582 -8 724 152 724 349 C724 546 582 706 385 706 L385 706 Z M385 63 C227 63 119 191 119 349 C119 507 227 635 385 635 C542 635 650 507 650 349 C650 191 542 63 385 63 L385 63 Z M442 900 C442 860 419 830 384 830 C347 830 326 860 326 900 L263 900 C263 827 310 769 384 769 C457 769 505 827 505 900 L442 900 Z " />
<glyph glyph-name="obreve" unicode="&#x14f;" horiz-adv-x="537" d="M267 489 C130 489 35 378 35 240 C35 102 130 -8 267 -8 C405 -8 502 102 502 240 C502 378 405 489 267 489 L267 489 Z M267 63 C168 63 108 141 108 240 C108 339 168 419 267 419 C366 419 429 339 429 240 C429 141 366 63 267 63 L267 63 Z M327 700 C327 660 304 630 269 630 C232 630 211 660 211 700 L148 700 C148 627 195 569 269 569 C342 569 390 627 390 700 L327 700 Z " />
<glyph glyph-name="Ohungarumlaut" unicode="&#x150;" horiz-adv-x="769" d="M385 706 C188 706 45 546 45 349 C45 152 188 -8 385 -8 C582 -8 724 152 724 349 C724 546 582 706 385 706 L385 706 Z M385 63 C227 63 119 191 119 349 C119 507 227 635 385 635 C542 635 650 507 650 349 C650 191 542 63 385 63 L385 63 Z M362 900 L284 763 L339 763 L438 900 L362 900 Z M506 900 L428 763 L483 763 L582 900 L506 900 Z " />
<glyph glyph-name="ohungarumlaut" unicode="&#x151;" horiz-adv-x="537" d="M267 489 C130 489 35 378 35 240 C35 102 130 -8 267 -8 C405 -8 502 102 502 240 C502 378 405 489 267 489 L267 489 Z M267 63 C168 63 108 141 108 240 C108 339 168 419 267 419 C366 419 429 339 429 240 C429 141 366 63 267 63 L267 63 Z M248 700 L170 563 L225 563 L324 700 L248 700 Z M392 700 L314 563 L369 563 L468 700 L392 700 Z " />
<glyph glyph-name="OE" unicode="&#x152;" horiz-adv-x="1060" d="M617 72 L617 314 L972 314 L972 386 L617 386 L617 628 L1003 628 L1003 700 L544 700 L544 670 C498 693 446 706 390 706 C193 706 45 546 45 349 C45 152 193 -7 390 -7 C446 -7 498 6 544 29 L544 0 L1009 0 L1009 72 L617 72 Z M544 111 C501 81 448 64 390 64 C232 64 119 192 119 349 C119 507 232 635 390 635 C448 635 501 618 544 587 L544 111 Z " />
<glyph glyph-name="oe" unicode="&#x153;" horiz-adv-x="913" d="M660 491 C573 491 504 446 466 377 C425 446 354 491 267 491 C129 491 35 379 35 242 C35 104 129 -7 267 -7 C355 -7 426 39 466 108 C506 39 578 -7 666 -7 C754 -7 822 38 862 106 L799 136 C770 92 726 63 666 63 C576 63 516 130 506 217 L877 217 C877 225 878 233 878 242 C878 379 798 491 660 491 L660 491 Z M660 421 C743 421 790 365 804 289 L509 289 C524 365 578 421 660 421 L660 421 Z M267 63 C168 63 108 143 108 242 C108 341 168 421 267 421 C365 421 428 341 428 242 C428 143 365 63 267 63 L267 63 Z " />
<glyph glyph-name="Racute" unicode="&#x154;" horiz-adv-x="592" d="M564 0 L406 280 C491 311 547 391 547 483 C547 601 458 700 327 700 L65 700 L65 0 L137 0 L137 266 L327 266 C328 266 330 266 331 266 L481 0 L564 0 Z M137 628 L327 628 C416 628 472 561 472 483 C472 405 416 338 327 338 L137 338 L137 628 Z M316 900 L238 763 L293 763 L392 900 L316 900 Z " />
<glyph glyph-name="racute" unicode="&#x155;" horiz-adv-x="308" d="M262 489 C204 489 156 465 123 426 L123 482 L50 482 L50 0 L123 0 L123 260 C123 366 177 417 251 417 C263 417 274 416 284 414 L298 487 C286 488 274 489 262 489 L262 489 Z M226 700 L148 563 L203 563 L302 700 L226 700 Z " />
<glyph glyph-name="Rcommaaccent" unicode="&#x156;" horiz-adv-x="592" d="M564 0 L406 280 C491 311 547 391 547 483 C547 601 458 700 327 700 L65 700 L65 0 L137 0 L137 266 L327 266 C328 266 330 266 331 266 L481 0 L564 0 Z M137 628 L327 628 C416 628 472 561 472 483 C472 405 416 338 327 338 L137 338 L137 628 Z M264 -51 L232 -183 L282 -183 L337 -51 L264 -51 Z " />
<glyph glyph-name="rcommaaccent" unicode="&#x157;" horiz-adv-x="308" d="M262 489 C204 489 156 465 123 426 L123 482 L50 482 L50 0 L123 0 L123 260 C123 366 177 417 251 417 C263 417 274 416 284 414 L298 487 C286 488 274 489 262 489 L262 489 Z M48 -76 L16 -208 L66 -208 L121 -76 L48 -76 Z " />
<glyph glyph-name="Rcaron" unicode="&#x158;" horiz-adv-x="592" d="M564 0 L406 280 C491 311 547 391 547 483 C547 601 458 700 327 700 L65 700 L65 0 L137 0 L137 266 L327 266 C328 266 330 266 331 266 L481 0 L564 0 Z M137 628 L327 628 C416 628 472 561 472 483 C472 405 416 338 327 338 L137 338 L137 628 Z M416 900 L332 900 L275 819 L218 900 L134 900 L241 763 L309 763 L416 900 Z " />
<glyph glyph-name="rcaron" unicode="&#x159;" horiz-adv-x="308" d="M263 489 C205 489 157 465 124 426 L124 482 L51 482 L51 0 L124 0 L124 260 C124 366 178 417 252 417 C264 417 275 416 285 414 L299 487 C287 488 275 489 263 489 L263 489 Z M317 700 L233 700 L176 619 L119 700 L35 700 L142 563 L210 563 L317 700 Z " />
<glyph glyph-name="Sacute" unicode="&#x15a;" horiz-adv-x="596" d="M309 388 C177 411 120 439 120 509 C120 592 188 635 297 635 C374 635 450 608 468 533 L537 557 C511 642 420 707 297 707 C125 707 47 612 48 509 C49 380 160 342 297 317 C434 292 493 271 493 195 C493 97 383 64 309 64 C203 64 127 103 99 170 L30 146 C59 67 153 -8 311 -8 C439 -8 566 60 566 195 C566 333 438 367 309 388 L309 388 Z M339 900 L261 763 L316 763 L415 900 L339 900 Z " />
<glyph glyph-name="sacute" unicode="&#x15b;" horiz-adv-x="426" d="M222 278 C152 294 108 305 102 343 C95 382 128 419 198 417 C252 415 288 394 300 359 L367 385 C345 448 281 489 197 489 C90 489 18 417 30 331 C44 241 136 222 208 208 C293 190 318 175 318 137 C318 78 255 64 215 64 C151 64 106 89 91 132 L25 105 C51 38 122 -8 215 -8 C302 -8 391 36 391 137 C391 229 303 261 222 278 L222 278 Z M259 700 L181 563 L236 563 L335 700 L259 700 Z " />
<glyph glyph-name="Scircumflex" unicode="&#x15c;" horiz-adv-x="596" d="M309 388 C177 411 120 439 120 509 C120 592 188 635 297 635 C374 635 450 608 468 533 L537 557 C511 642 420 707 297 707 C125 707 47 612 48 509 C49 380 160 342 297 317 C434 292 493 271 493 195 C493 97 383 64 309 64 C203 64 127 103 99 170 L30 146 C59 67 153 -8 311 -8 C439 -8 566 60 566 195 C566 333 438 367 309 388 L309 388 Z M439 763 L332 900 L264 900 L158 763 L241 763 L298 843 L355 763 L439 763 Z " />
<glyph glyph-name="scircumflex" unicode="&#x15d;" horiz-adv-x="426" d="M222 278 C152 294 108 305 102 343 C95 382 128 419 198 417 C252 415 288 394 300 359 L367 385 C345 448 281 489 197 489 C90 489 18 417 30 331 C44 241 136 222 208 208 C293 190 318 175 318 137 C318 78 255 64 215 64 C151 64 106 89 91 132 L25 105 C51 38 122 -8 215 -8 C302 -8 391 36 391 137 C391 229 303 261 222 278 L222 278 Z M349 563 L242 700 L174 700 L68 563 L151 563 L208 643 L265 563 L349 563 Z " />
<glyph glyph-name="Scedilla" unicode="&#x15e;" horiz-adv-x="595" d="M565 195 C565 333 437 367 309 389 C176 411 120 439 120 509 C120 593 188 635 297 635 C374 635 450 608 468 534 L536 557 C511 642 420 708 297 708 C124 708 47 612 47 509 C48 380 160 342 297 317 C433 292 493 271 493 195 C493 97 383 64 308 64 C202 64 127 103 99 170 L30 146 C56 75 133 6 264 -6 L227 -77 L270 -107 C286 -91 306 -93 318 -97 C336 -104 341 -123 332 -140 C316 -170 267 -164 237 -142 L215 -182 C260 -210 307 -214 344 -193 C368 -179 383 -152 383 -124 C383 -85 356 -49 294 -56 L318 -8 C444 -5 565 64 565 195 L565 195 Z " />
<glyph glyph-name="scedilla" unicode="&#x15f;" horiz-adv-x="428" d="M393 140 C393 232 303 261 222 279 C152 294 108 305 102 344 C95 383 128 420 198 417 C252 415 288 395 300 360 L367 385 C345 448 281 490 197 490 C90 490 18 418 30 332 C44 241 135 223 208 208 C293 190 321 178 321 140 C321 81 255 64 215 64 C151 64 106 90 91 132 L25 105 C48 47 105 4 180 -6 L144 -77 L186 -107 C203 -91 222 -93 234 -97 C253 -104 257 -123 248 -140 C232 -170 184 -164 153 -142 L132 -182 C176 -210 224 -214 261 -193 C285 -179 300 -152 300 -124 C300 -85 272 -49 211 -56 L235 -7 C316 -1 393 47 393 140 L393 140 Z " />
<glyph glyph-name="Scaron" unicode="&#x160;" horiz-adv-x="596" d="M309 388 C177 411 120 439 120 509 C120 592 188 635 297 635 C374 635 450 608 468 533 L537 557 C511 642 420 707 297 707 C125 707 47 612 48 509 C49 380 160 342 297 317 C434 292 493 271 493 195 C493 97 383 64 309 64 C203 64 127 103 99 170 L30 146 C59 67 153 -8 311 -8 C439 -8 566 60 566 195 C566 333 438 367 309 388 L309 388 Z M439 900 L355 900 L298 819 L241 900 L157 900 L264 763 L332 763 L439 900 Z " />
<glyph glyph-name="scaron" unicode="&#x161;" horiz-adv-x="426" d="M222 278 C152 294 108 305 102 343 C95 382 128 419 198 417 C252 415 288 394 300 359 L367 385 C345 448 281 489 197 489 C90 489 18 417 30 331 C44 241 136 222 208 208 C293 190 318 175 318 137 C318 78 255 64 215 64 C151 64 106 89 91 132 L25 105 C51 38 122 -8 215 -8 C302 -8 391 36 391 137 C391 229 303 261 222 278 L222 278 Z M349 700 L265 700 L208 619 L151 700 L67 700 L174 563 L242 563 L349 700 Z " />
<glyph glyph-name="Tcommaaccent" unicode="&#x162;" horiz-adv-x="547" d="M527 700 L20 700 L20 628 L238 628 L238 0 L310 0 L310 628 L527 628 L527 700 Z M236 -76 L204 -208 L254 -208 L309 -76 L236 -76 Z " />
<glyph glyph-name="tcommaaccent" unicode="&#x163;" horiz-adv-x="319" d="M267 85 C237 60 197 61 181 74 C164 89 162 112 162 152 C162 188 162 305 162 409 L264 409 L264 482 L162 482 C162 548 162 608 162 608 L89 588 C89 588 89 549 89 482 L15 482 L15 409 L89 409 C89 308 89 194 89 150 C89 39 128 0 191 -7 C222 -11 270 2 304 30 L267 85 Z M159 -76 L127 -208 L177 -208 L232 -76 L159 -76 Z " />
<glyph glyph-name="Tcaron" unicode="&#x164;" horiz-adv-x="547" d="M527 700 L20 700 L20 628 L238 628 L238 0 L310 0 L310 628 L527 628 L527 700 Z M415 900 L331 900 L274 819 L217 900 L133 900 L240 763 L308 763 L415 900 Z " />
<glyph glyph-name="tcaron" unicode="&#x165;" horiz-adv-x="353" d="M267 85 C237 60 197 61 181 74 C164 89 162 112 162 152 C162 188 162 305 162 409 L264 409 L264 482 L162 482 C162 548 162 608 162 608 L89 588 C89 588 89 549 89 482 L15 482 L15 409 L89 409 C89 308 89 194 89 150 C89 39 128 0 191 -7 C222 -11 270 2 304 30 L267 85 Z M302 528 L349 528 L418 696 L342 696 L302 528 Z " />
<glyph glyph-name="Tbar" unicode="&#x166;" horiz-adv-x="546" d="M526 628 L526 700 L20 700 L20 628 L237 628 L237 421 L77 421 L77 349 L237 349 L237 0 L309 0 L309 349 L468 349 L468 421 L309 421 L309 628 L526 628 Z " />
<glyph glyph-name="tbar" unicode="&#x167;" horiz-adv-x="319" d="M267 85 C238 60 196 61 181 74 C164 89 162 113 162 153 C162 169 162 200 162 240 L235 240 L235 312 L162 312 C162 344 162 376 162 409 L264 409 L264 482 L162 482 C162 549 162 608 162 608 L89 588 C89 588 89 549 89 482 L15 482 L15 409 L89 409 C89 376 89 344 89 312 L43 312 L43 240 L89 240 C89 202 89 170 89 151 C89 39 128 1 191 -7 C222 -10 267 0 304 30 L267 85 Z " />
<glyph glyph-name="Utilde" unicode="&#x168;" horiz-adv-x="640" d="M508 700 C508 700 508 404 508 275 C508 138 427 64 323 64 C219 64 132 135 132 275 C132 385 132 700 132 700 L60 700 C60 700 60 422 60 278 C60 78 179 -8 323 -8 C467 -8 580 82 580 281 C580 427 580 700 580 700 L508 700 Z M416 870 C403 822 370 839 332 860 C260 900 197 883 159 805 L218 774 C242 816 269 815 307 793 C379 752 449 742 482 850 L416 870 Z " />
<glyph glyph-name="utilde" unicode="&#x169;" horiz-adv-x="500" d="M373 482 L373 222 C373 115 319 65 245 65 C167 65 123 111 123 216 C123 288 123 482 123 482 L50 482 C50 482 50 376 50 216 C50 39 141 -8 236 -8 C295 -8 340 17 373 56 L373 0 L445 0 L445 482 L373 482 Z M346 670 C333 622 300 639 262 660 C190 700 127 683 89 605 L148 574 C172 616 199 615 237 593 C309 552 379 542 412 650 L346 670 Z " />
<glyph glyph-name="Umacron" unicode="&#x16a;" horiz-adv-x="640" d="M508 700 C508 700 508 404 508 275 C508 138 427 64 323 64 C219 64 132 135 132 275 C132 385 132 700 132 700 L60 700 C60 700 60 422 60 278 C60 78 179 -8 323 -8 C467 -8 580 82 580 281 C580 427 580 700 580 700 L508 700 Z M195 877 L195 805 L445 805 L445 877 L195 877 Z " />
<glyph glyph-name="umacron" unicode="&#x16b;" horiz-adv-x="500" d="M373 482 L373 222 C373 115 319 65 245 65 C167 65 123 111 123 216 C123 288 123 482 123 482 L50 482 C50 482 50 376 50 216 C50 39 141 -8 236 -8 C295 -8 340 17 373 56 L373 0 L445 0 L445 482 L373 482 Z M133 677 L133 605 L383 605 L383 677 L133 677 Z " />
<glyph glyph-name="Ubreve" unicode="&#x16c;" horiz-adv-x="640" d="M508 700 C508 700 508 404 508 275 C508 138 427 64 323 64 C219 64 132 135 132 275 C132 385 132 700 132 700 L60 700 C60 700 60 422 60 278 C60 78 179 -8 323 -8 C467 -8 580 82 580 281 C580 427 580 700 580 700 L508 700 Z M378 900 C378 860 355 830 320 830 C283 830 262 860 262 900 L199 900 C199 827 246 769 320 769 C393 769 441 827 441 900 L378 900 Z " />
<glyph glyph-name="ubreve" unicode="&#x16d;" horiz-adv-x="500" d="M373 482 L373 222 C373 115 319 65 245 65 C167 65 123 111 123 216 C123 288 123 482 123 482 L50 482 C50 482 50 376 50 216 C50 39 141 -8 236 -8 C295 -8 340 17 373 56 L373 0 L445 0 L445 482 L373 482 Z M316 700 C316 660 293 630 258 630 C221 630 200 660 200 700 L137 700 C137 627 184 569 258 569 C331 569 379 627 379 700 L316 700 Z " />
<glyph glyph-name="Uring" unicode="&#x16e;" horiz-adv-x="640" d="M508 700 C508 700 508 404 508 275 C508 138 427 64 323 64 C219 64 132 135 132 275 C132 385 132 700 132 700 L60 700 C60 700 60 422 60 278 C60 78 179 -8 323 -8 C467 -8 580 82 580 281 C580 427 580 700 580 700 L508 700 Z M321 976 C259 976 210 926 210 865 C210 804 259 754 321 754 C382 754 431 804 431 865 C431 926 382 976 321 976 L321 976 Z M321 813 C292 813 268 836 268 865 C268 894 292 917 321 917 C349 917 373 894 373 865 C373 836 349 813 321 813 L321 813 Z " />
<glyph glyph-name="uring" unicode="&#x16f;" horiz-adv-x="500" d="M373 482 L373 222 C373 115 319 65 245 65 C167 65 123 111 123 216 C123 288 123 482 123 482 L50 482 C50 482 50 376 50 216 C50 39 141 -8 236 -8 C295 -8 340 17 373 56 L373 0 L445 0 L445 482 L373 482 Z M256 776 C194 776 145 726 145 665 C145 604 194 554 256 554 C317 554 366 604 366 665 C366 726 317 776 256 776 L256 776 Z M256 613 C227 613 203 636 203 665 C203 694 227 717 256 717 C284 717 308 694 308 665 C308 636 284 613 256 613 L256 613 Z " />
<glyph glyph-name="Uhungarumlaut" unicode="&#x170;" horiz-adv-x="640" d="M508 700 C508 700 508 404 508 275 C508 138 427 64 323 64 C219 64 132 135 132 275 C132 385 132 700 132 700 L60 700 C60 700 60 422 60 278 C60 78 179 -8 323 -8 C467 -8 580 82 580 281 C580 427 580 700 580 700 L508 700 Z M299 900 L221 763 L276 763 L375 900 L299 900 Z M443 900 L365 763 L420 763 L519 900 L443 900 Z " />
<glyph glyph-name="uhungarumlaut" unicode="&#x171;" horiz-adv-x="500" d="M373 482 L373 222 C373 115 319 65 245 65 C167 65 123 111 123 216 C123 288 123 482 123 482 L50 482 C50 482 50 376 50 216 C50 39 141 -8 236 -8 C295 -8 340 17 373 56 L373 0 L445 0 L445 482 L373 482 Z M224 700 L146 563 L201 563 L300 700 L224 700 Z M368 700 L290 563 L345 563 L444 700 L368 700 Z " />
<glyph glyph-name="Uogonek" unicode="&#x172;" horiz-adv-x="641" d="M509 700 C509 700 509 396 509 267 C509 137 427 64 323 64 C219 64 132 134 132 267 C132 377 132 700 132 700 L60 700 C60 700 60 410 60 267 C60 85 179 -8 323 -8 C347 -8 370 -6 392 0 C356 -32 328 -73 324 -113 C319 -169 361 -203 412 -203 C428 -203 443 -200 459 -194 L459 -125 C433 -140 392 -144 381 -116 C367 -78 427 -5 474 39 C539 86 581 166 581 269 C581 415 581 700 581 700 L509 700 Z " />
<glyph glyph-name="uogonek" unicode="&#x173;" horiz-adv-x="500" d="M441 0 L445 0 L445 482 L373 482 L373 222 C373 116 318 65 244 65 C166 65 122 111 122 216 C122 289 122 482 122 482 L50 482 C50 482 50 377 50 216 C50 39 140 -7 236 -7 C295 -7 339 17 373 56 L373 0 L380 0 C358 -13 309 -59 304 -113 C299 -169 341 -203 392 -203 C408 -203 423 -200 439 -194 L439 -125 C413 -140 372 -144 361 -116 C346 -75 398 -19 441 0 L441 0 Z " />
<glyph glyph-name="Wcircumflex" unicode="&#x174;" horiz-adv-x="999" d="M901 700 L715 119 L536 700 L466 700 L287 119 L101 700 L20 700 L249 0 L322 0 L501 582 L680 0 L753 0 L979 700 L901 700 Z M640 763 L533 900 L465 900 L359 763 L442 763 L499 843 L556 763 L640 763 Z " />
<glyph glyph-name="wcircumflex" unicode="&#x175;" horiz-adv-x="710" d="M630 482 L511 117 L390 482 L320 482 L199 117 L81 482 L5 482 L161 0 L234 0 L355 365 L476 0 L549 0 L705 482 L630 482 Z M496 563 L389 700 L321 700 L215 563 L298 563 L355 643 L412 563 L496 563 Z " />
<glyph glyph-name="Ycircumflex" unicode="&#x176;" horiz-adv-x="559" d="M559 700 L476 700 L279 349 L83 700 L0 700 L243 265 L243 0 L316 0 L316 266 L559 700 Z M420 763 L313 900 L245 900 L139 763 L222 763 L279 843 L336 763 L420 763 Z " />
<glyph glyph-name="ycircumflex" unicode="&#x177;" horiz-adv-x="443" d="M361 482 L224 101 L88 482 L10 482 L186 0 C138 -124 119 -143 51 -130 L38 -201 C96 -216 150 -207 188 -156 C216 -117 239 -63 269 15 L438 482 L361 482 Z M365 563 L258 700 L190 700 L84 563 L167 563 L224 643 L281 563 L365 563 Z " />
<glyph glyph-name="Ydieresis" unicode="&#x178;" horiz-adv-x="559" d="M559 700 L476 700 L279 349 L83 700 L0 700 L243 265 L243 0 L316 0 L316 266 L559 700 Z M204 879 C182 879 163 861 163 838 C163 816 182 798 204 798 C226 798 244 816 244 838 C244 861 226 879 204 879 L204 879 Z M355 879 C333 879 315 861 315 838 C315 816 333 798 355 798 C378 798 396 816 396 838 C396 861 378 879 355 879 L355 879 Z " />
<glyph glyph-name="Zacute" unicode="&#x179;" horiz-adv-x="575" d="M113 73 L546 628 L546 700 L45 700 L45 628 L454 628 L15 73 L15 0 L560 0 L560 73 L113 73 Z M339 900 L261 763 L316 763 L415 900 L339 900 Z " />
<glyph glyph-name="zacute" unicode="&#x17a;" horiz-adv-x="439" d="M124 72 L400 409 L400 482 L44 482 L44 409 L306 409 L30 72 L30 0 L414 0 L414 72 L124 72 Z M266 700 L188 563 L243 563 L342 700 L266 700 Z " />
<glyph glyph-name="Zdotaccent" unicode="&#x17b;" horiz-adv-x="575" d="M113 73 L546 628 L546 700 L45 700 L45 628 L454 628 L15 73 L15 0 L560 0 L560 73 L113 73 Z M303 879 C281 879 263 861 263 838 C263 816 281 798 303 798 C325 798 343 816 343 838 C343 861 325 879 303 879 L303 879 Z " />
<glyph glyph-name="zdotaccent" unicode="&#x17c;" horiz-adv-x="439" d="M124 72 L400 409 L400 482 L44 482 L44 409 L306 409 L30 72 L30 0 L414 0 L414 72 L124 72 Z M228 679 C206 679 188 661 188 638 C188 616 206 598 228 598 C250 598 268 616 268 638 C268 661 250 679 228 679 L228 679 Z " />
<glyph glyph-name="Zcaron" unicode="&#x17d;" horiz-adv-x="575" d="M113 73 L546 628 L546 700 L45 700 L45 628 L454 628 L15 73 L15 0 L560 0 L560 73 L113 73 Z M449 900 L365 900 L308 819 L251 900 L167 900 L274 763 L342 763 L449 900 Z " />
<glyph glyph-name="zcaron" unicode="&#x17e;" horiz-adv-x="439" d="M124 72 L400 409 L400 482 L44 482 L44 409 L306 409 L30 72 L30 0 L414 0 L414 72 L124 72 Z M363 700 L279 700 L222 619 L165 700 L81 700 L188 563 L256 563 L363 700 Z " />
<glyph glyph-name="AEacute" unicode="&#x1fc;" horiz-adv-x="994" d="M551 72 L551 314 L907 314 L907 386 L551 386 L551 628 L938 628 L938 700 L367 700 L0 0 L78 0 L184 203 L479 203 L479 0 L944 0 L944 72 L551 72 Z M222 275 L406 628 L479 628 L479 275 L222 275 Z M571 900 L493 763 L548 763 L647 900 L571 900 Z " />
<glyph glyph-name="aeacute" unicode="&#x1fd;" horiz-adv-x="839" d="M587 489 C511 489 448 455 408 400 C382 457 327 489 248 489 C129 489 74 421 60 356 L125 341 C136 381 160 424 245 424 C338 424 355 371 356 338 C357 306 328 292 252 280 C104 256 30 213 30 117 C30 37 97 -7 186 -7 C254 -7 312 18 353 57 C369 73 382 91 392 109 C431 39 504 -7 593 -7 C680 -7 748 36 789 104 L725 135 C697 90 652 63 593 63 C503 63 442 128 433 215 L803 215 C804 223 804 232 804 240 C804 378 725 489 587 489 L587 489 Z M587 419 C670 419 717 363 730 287 L436 287 C451 363 505 419 587 419 L587 419 Z M356 207 C357 119 286 61 192 61 C168 61 107 69 107 123 C107 176 158 197 263 214 C298 220 330 223 356 228 L356 207 Z M476 700 L398 563 L453 563 L552 700 L476 700 Z " />
<glyph glyph-name="Oslashacute" unicode="&#x1fe;" horiz-adv-x="768" d="M727 676 L673 724 L592 634 C536 679 465 706 384 706 C187 706 45 546 45 349 C45 260 74 179 124 116 L41 24 L95 -24 L175 65 C232 20 303 -7 384 -7 C581 -7 723 152 723 349 C723 439 694 521 643 583 L727 676 Z M119 349 C119 507 226 635 384 635 C446 635 501 615 544 581 L173 171 C138 220 119 282 119 349 L119 349 Z M649 349 C649 192 542 64 384 64 C321 64 267 84 223 118 L594 529 C629 480 649 417 649 349 L649 349 Z M436 900 L358 763 L413 763 L512 900 L436 900 Z " />
<glyph glyph-name="oslashacute" unicode="&#x1ff;" horiz-adv-x="537" d="M512 458 L458 506 L403 445 C365 473 319 489 266 489 C128 489 34 378 34 240 C34 182 51 130 80 88 L23 24 L76 -24 L131 36 C168 9 214 -7 266 -7 C403 -7 501 103 501 240 C501 298 483 351 454 393 L512 458 Z M107 240 C107 339 167 419 266 419 C301 419 331 409 355 392 L130 143 C115 171 107 204 107 240 L107 240 Z M428 240 C428 141 365 63 266 63 C232 63 202 72 178 88 L404 338 C419 310 428 276 428 240 L428 240 Z M312 700 L234 563 L289 563 L388 700 L312 700 Z " />
<glyph glyph-name="Scommaaccent" unicode="&#x218;" horiz-adv-x="596" d="M309 388 C177 411 120 439 120 509 C120 592 188 635 297 635 C374 635 450 608 468 533 L537 557 C511 642 420 707 297 707 C125 707 47 612 48 509 C49 380 160 342 297 317 C434 292 493 271 493 195 C493 97 383 64 309 64 C203 64 127 103 99 170 L30 146 C59 67 153 -8 311 -8 C439 -8 566 60 566 195 C566 333 438 367 309 388 L309 388 Z M249 -51 L217 -183 L267 -183 L322 -51 L249 -51 Z " />
<glyph glyph-name="scommaaccent" unicode="&#x219;" horiz-adv-x="426" d="M222 278 C152 294 108 305 102 343 C95 382 128 419 198 417 C252 415 288 394 300 359 L367 385 C345 448 281 489 197 489 C90 489 18 417 30 331 C44 241 136 222 208 208 C293 190 318 175 318 137 C318 78 255 64 215 64 C151 64 106 89 91 132 L25 105 C51 38 122 -8 215 -8 C302 -8 391 36 391 137 C391 229 303 261 222 278 L222 278 Z M157 -76 L125 -208 L175 -208 L230 -76 L157 -76 Z " />
<glyph glyph-name="uni021A" unicode="&#x21a;" horiz-adv-x="547" d="M527 700 L20 700 L20 628 L238 628 L238 0 L310 0 L310 628 L527 628 L527 700 Z M236 -76 L204 -208 L254 -208 L309 -76 L236 -76 Z " />
<glyph glyph-name="uni021B" unicode="&#x21b;" horiz-adv-x="319" d="M267 85 C237 60 197 61 181 74 C164 89 162 112 162 152 C162 188 162 305 162 409 L264 409 L264 482 L162 482 C162 548 162 608 162 608 L89 588 C89 588 89 549 89 482 L15 482 L15 409 L89 409 C89 308 89 194 89 150 C89 39 128 0 191 -7 C222 -11 270 2 304 30 L267 85 Z M159 -76 L127 -208 L177 -208 L232 -76 L159 -76 Z " />
<glyph glyph-name="circumflex" unicode="&#x2c6;" horiz-adv-x="381" d="M331 563 L224 700 L156 700 L50 563 L133 563 L190 643 L247 563 L331 563 Z " />
<glyph glyph-name="caron" unicode="&#x2c7;" horiz-adv-x="382" d="M332 700 L248 700 L191 619 L134 700 L50 700 L157 563 L225 563 L332 700 Z " />
<glyph glyph-name="breve" unicode="&#x2d8;" horiz-adv-x="342" d="M229 700 C229 660 206 630 171 630 C134 630 113 660 113 700 L50 700 C50 627 97 569 171 569 C244 569 292 627 292 700 L229 700 Z " />
<glyph glyph-name="dotaccent" unicode="&#x2d9;" horiz-adv-x="180" d="M90 679 C68 679 50 661 50 638 C50 616 68 598 90 598 C112 598 130 616 130 638 C130 661 112 679 90 679 L90 679 Z " />
<glyph glyph-name="ring" unicode="&#x2da;" horiz-adv-x="321" d="M161 776 C99 776 50 726 50 665 C50 604 99 554 161 554 C222 554 271 604 271 665 C271 726 222 776 161 776 L161 776 Z M161 613 C132 613 108 636 108 665 C108 694 132 717 161 717 C189 717 213 694 213 665 C213 636 189 613 161 613 L161 613 Z " />
<glyph glyph-name="ogonek" unicode="&#x2db;" horiz-adv-x="238" d="M108 -116 C93 -75 145 -19 188 0 L127 0 C105 -13 56 -59 51 -113 C46 -169 88 -203 139 -203 C155 -203 170 -200 186 -194 L186 -125 C160 -140 119 -144 108 -116 L108 -116 Z " />
<glyph glyph-name="tilde" unicode="&#x2dc;" horiz-adv-x="423" d="M307 670 C294 622 261 639 223 660 C151 700 88 683 50 605 L109 574 C133 616 160 615 198 593 C270 552 340 542 373 650 L307 670 Z " />
<glyph glyph-name="hungarumlaut" unicode="&#x2dd;" horiz-adv-x="398" d="M128 700 L50 563 L105 563 L204 700 L128 700 Z M272 700 L194 563 L249 563 L348 700 L272 700 Z " />
<glyph glyph-name="uni0401" unicode="&#x401;" horiz-adv-x="575" d="M185 811 C208 811 226 829 226 851 C226 873 208 891 185 891 C163 891 145 873 145 851 C145 829 163 811 185 811 L185 811 Z M383 811 C405 811 423 829 423 851 C423 873 405 891 383 891 C361 891 343 873 343 851 C343 829 361 811 383 811 L383 811 Z M132 72 L132 314 L488 314 L488 386 L132 386 L132 628 L519 628 L519 700 L60 700 L60 0 L525 0 L525 72 L132 72 Z " />
<glyph glyph-name="uni0402" unicode="&#x402;" horiz-adv-x="705" d="M655 230 C655 368 601 466 463 457 C409 454 352 428 319 404 L319 627 L536 627 L536 700 L30 700 L30 627 L247 627 L247 0 L319 0 L319 316 C348 345 399 379 463 382 C534 385 582 357 582 230 L582 152 C582 112 580 90 563 74 C548 61 516 60 486 85 L446 30 C480 2 522 -11 553 -7 C616 0 655 39 655 150 L655 230 Z " />
<glyph glyph-name="uni0403" unicode="&#x403;" horiz-adv-x="462" d="M442 700 L65 700 L65 0 L138 0 L138 627 L442 627 L442 700 Z M299 900 L221 763 L276 763 L375 900 L299 900 Z " />
<glyph glyph-name="uni0404" unicode="&#x404;" horiz-adv-x="709" d="M390 64 C244 64 136 173 121 314 L470 314 L470 386 L121 386 C137 526 245 635 390 635 C486 635 567 587 615 515 L679 546 C619 642 514 706 390 706 C193 706 45 546 45 349 C45 152 193 -7 390 -7 C514 -7 619 56 679 152 L615 184 C567 111 486 64 390 64 L390 64 Z " />
<glyph glyph-name="uni0405" unicode="&#x405;" horiz-adv-x="596" d="M309 388 C177 411 120 439 120 509 C120 592 188 635 297 635 C374 635 450 608 468 533 L537 557 C511 642 420 707 297 707 C125 707 47 612 48 509 C49 380 160 342 297 317 C434 292 493 271 493 195 C493 97 383 64 309 64 C203 64 127 103 99 170 L30 146 C59 67 151 -8 309 -8 C437 -8 566 60 566 195 C566 333 438 367 309 388 L309 388 Z " />
<glyph glyph-name="uni0406" unicode="&#x406;" horiz-adv-x="202" d="M65 700 L65 0 L137 0 L137 700 L65 700 Z " />
<glyph glyph-name="uni0407" unicode="&#x407;" horiz-adv-x="218" d="M75 700 L75 0 L147 0 L147 700 L75 700 Z M36 879 C14 879 -5 861 -5 838 C-5 816 14 798 36 798 C58 798 76 816 76 838 C76 861 58 879 36 879 L36 879 Z M187 879 C165 879 147 861 147 838 C147 816 165 798 187 798 C210 798 228 816 228 838 C228 861 210 879 187 879 L187 879 Z " />
<glyph glyph-name="uni0408" unicode="&#x408;" horiz-adv-x="409" d="M347 700 L274 700 C274 700 274 282 274 185 C274 101 237 64 178 64 C128 64 92 89 74 110 L21 68 C38 41 99 -8 181 -8 C291 -8 347 64 347 187 C347 306 347 700 347 700 L347 700 Z " />
<glyph glyph-name="uni0409" unicode="&#x409;" horiz-adv-x="1021" d="M761 434 L571 434 L571 700 L168 700 C168 572 167 426 152 307 C138 186 112 110 75 81 C60 68 39 65 15 70 L0 0 C31 -7 83 -5 120 25 C174 67 207 154 224 298 C236 399 239 517 240 627 L499 627 L499 0 L761 0 C893 0 981 99 981 217 C981 335 888 434 761 434 L761 434 Z M761 72 L571 72 L571 361 L761 361 C850 361 906 295 906 217 C906 139 850 72 761 72 L761 72 Z " />
<glyph glyph-name="uni040A" unicode="&#x40a;" horiz-adv-x="1040" d="M780 386 L596 386 L596 700 L524 700 L524 386 L138 386 L138 700 L65 700 L65 0 L138 0 L138 314 L524 314 L524 0 L780 0 C912 0 1000 75 1000 194 C1000 312 907 386 780 386 L780 386 Z M780 72 L596 72 L596 314 L780 314 C869 314 925 272 925 194 C925 115 869 72 780 72 L780 72 Z " />
<glyph glyph-name="uni040B" unicode="&#x40b;" horiz-adv-x="708" d="M466 457 C412 454 353 428 319 403 L319 627 L537 627 L537 700 L30 700 L30 627 L247 627 L247 0 L319 0 L319 315 C349 344 402 379 466 382 C537 385 586 357 586 230 C586 120 586 0 586 0 L658 0 C658 0 658 110 658 230 C658 368 604 466 466 457 L466 457 Z " />
<glyph glyph-name="uni040C" unicode="&#x40c;" horiz-adv-x="594" d="M496 0 L584 0 L294 407 L558 700 L462 700 L138 342 L138 700 L65 700 L65 0 L138 0 L138 234 L244 352 L496 0 Z M344 900 L266 763 L321 763 L420 900 L344 900 Z " />
<glyph glyph-name="uni040E" unicode="&#x40e;" horiz-adv-x="557" d="M468 700 L289 287 L81 700 L0 700 L251 201 C207 102 165 50 91 72 L70 3 C101 -8 181 -18 246 54 C284 95 308 150 324 187 L547 700 L468 700 Z M346 900 C346 860 323 830 288 830 C251 830 230 860 230 900 L167 900 C167 827 214 769 288 769 C361 769 409 827 409 900 L346 900 Z " />
<glyph glyph-name="uni040F" unicode="&#x40f;" horiz-adv-x="639" d="M497 700 L497 72 L143 72 L143 700 L70 700 L70 0 L284 0 L284 -127 L356 -127 L356 0 L569 0 L569 700 L497 700 Z " />
<glyph glyph-name="uni0410" unicode="&#x410;" horiz-adv-x="655" d="M545 0 L625 0 L360 700 L294 700 L30 0 L110 0 L186 203 L469 203 L545 0 Z M213 275 L327 585 L442 275 L213 275 Z " />
<glyph glyph-name="uni0411" unicode="&#x411;" horiz-adv-x="598" d="M137 409 L137 627 L476 627 L476 700 L65 700 L65 0 L331 0 C477 0 551 96 551 208 C551 320 477 409 323 409 L137 409 Z M329 72 L137 72 L137 339 L325 339 C429 339 475 278 475 206 C475 133 428 72 329 72 L329 72 Z " />
<glyph glyph-name="uni0412" unicode="&#x412;" horiz-adv-x="593" d="M434 379 C481 410 508 459 508 517 C508 618 449 700 309 700 L65 700 L65 0 L326 0 C479 0 548 94 548 206 C548 282 506 347 434 379 L434 379 Z M304 628 C403 628 430 578 430 517 C430 456 396 406 297 406 L138 406 L138 627 L304 628 Z M324 72 L138 72 L138 340 L320 340 C424 340 470 278 470 206 C470 133 423 72 324 72 L324 72 Z " />
<glyph glyph-name="uni0413" unicode="&#x413;" horiz-adv-x="462" d="M442 700 L65 700 L65 0 L138 0 L138 627 L442 627 L442 700 Z " />
<glyph glyph-name="uni0414" unicode="&#x414;" horiz-adv-x="716" d="M605 72 L605 700 L202 700 L202 685 C202 514 195 204 97 72 L30 72 L30 -127 L103 -127 L103 0 L604 0 L604 -127 L676 -127 L676 72 L605 72 Z M274 627 L532 627 L532 72 L180 72 C252 200 271 419 274 627 L274 627 Z " />
<glyph glyph-name="uni0415" unicode="&#x415;" horiz-adv-x="575" d="M132 72 L132 314 L488 314 L488 386 L132 386 L132 628 L519 628 L519 700 L60 700 L60 0 L525 0 L525 72 L132 72 Z " />
<glyph glyph-name="uni0416" unicode="&#x416;" horiz-adv-x="964" d="M866 0 L954 0 L664 407 L929 700 L832 700 L518 342 L518 700 L446 700 L446 342 L132 700 L35 700 L299 407 L10 0 L98 0 L349 352 L446 234 L446 0 L518 0 L518 234 L615 352 L866 0 Z " />
<glyph glyph-name="uni0417" unicode="&#x417;" horiz-adv-x="581" d="M395 368 C453 394 498 454 498 534 C498 631 409 706 284 706 C174 706 75 648 41 555 L107 540 C138 602 195 637 284 637 C355 637 425 600 425 530 C425 455 376 397 276 397 L184 397 L184 327 L279 327 C399 327 463 286 463 203 C463 117 391 60 285 60 C187 60 121 105 94 150 L30 116 C66 51 164 -8 288 -8 C451 -8 536 91 536 204 C536 324 430 359 395 368 L395 368 Z " />
<glyph glyph-name="uni0418" unicode="&#x418;" horiz-adv-x="662" d="M531 700 L137 134 L137 700 L65 700 L65 0 L131 0 L525 568 L525 0 L597 0 L597 700 L531 700 Z " />
<glyph glyph-name="uni0419" unicode="&#x419;" horiz-adv-x="662" d="M336 762 C410 762 468 820 468 893 L407 893 C407 853 377 823 336 823 C296 823 266 853 266 893 L205 893 C205 820 263 762 336 762 L336 762 Z M531 700 L137 134 L137 700 L65 700 L65 0 L131 0 L525 568 L525 0 L597 0 L597 700 L531 700 Z " />
<glyph glyph-name="uni041A" unicode="&#x41a;" horiz-adv-x="594" d="M496 0 L584 0 L294 407 L558 700 L462 700 L138 342 L138 700 L65 700 L65 0 L138 0 L138 234 L244 352 L496 0 Z " />
<glyph glyph-name="uni041B" unicode="&#x41b;" horiz-adv-x="632" d="M169 700 C169 572 168 426 153 307 C139 186 113 110 76 81 C60 68 39 65 16 70 L0 0 C32 -8 84 -5 121 24 C175 67 208 154 225 298 C237 399 240 517 241 627 L500 627 L500 0 L572 0 L572 700 L169 700 Z " />
<glyph glyph-name="uni041C" unicode="&#x41c;" horiz-adv-x="817" d="M685 700 L408 264 L132 700 L65 700 L65 0 L138 0 L138 561 L383 175 L432 175 L679 561 L679 0 L752 0 L752 700 L685 700 Z " />
<glyph glyph-name="uni041D" unicode="&#x41d;" horiz-adv-x="660" d="M523 700 L523 386 L137 386 L137 700 L65 700 L65 0 L137 0 L137 314 L523 314 L523 0 L595 0 L595 700 L523 700 Z " />
<glyph glyph-name="uni041E" unicode="&#x41e;" horiz-adv-x="769" d="M385 706 C188 706 45 546 45 349 C45 152 188 -8 385 -8 C582 -8 724 152 724 349 C724 546 582 706 385 706 L385 706 Z M385 63 C227 63 119 191 119 349 C119 507 227 635 385 635 C542 635 650 507 650 349 C650 191 542 63 385 63 L385 63 Z " />
<glyph glyph-name="uni041F" unicode="&#x41f;" horiz-adv-x="661" d="M65 700 L65 0 L138 0 L138 627 L523 627 L523 0 L596 0 L596 700 L65 700 Z " />
<glyph glyph-name="uni0420" unicode="&#x420;" horiz-adv-x="587" d="M328 700 L65 700 L65 0 L138 0 L138 266 L328 266 C455 266 547 365 547 483 C547 601 459 700 328 700 L328 700 Z M328 338 L138 338 L138 628 L328 628 C417 628 472 561 472 483 C472 405 416 338 328 338 L328 338 Z " />
<glyph glyph-name="uni0421" unicode="&#x421;" horiz-adv-x="709" d="M390 63 C232 63 119 191 119 349 C119 507 232 635 390 635 C486 635 567 587 615 515 L679 546 C619 643 514 706 390 706 C193 706 45 546 45 349 C45 152 193 -8 390 -8 C514 -8 619 56 679 152 L615 184 C567 111 486 63 390 63 L390 63 Z " />
<glyph glyph-name="uni0422" unicode="&#x422;" horiz-adv-x="547" d="M527 700 L20 700 L20 628 L238 628 L238 0 L310 0 L310 628 L527 628 L527 700 Z " />
<glyph glyph-name="uni0423" unicode="&#x423;" horiz-adv-x="557" d="M468 700 L289 287 L81 700 L0 700 L251 201 C207 102 165 50 91 72 L70 3 C101 -8 181 -18 246 54 C284 95 308 150 324 187 L547 700 L468 700 Z " />
<glyph glyph-name="uni0424" unicode="&#x424;" horiz-adv-x="826" d="M781 349 C781 534 630 632 449 644 L449 728 L377 728 L377 644 C195 632 45 534 45 349 C45 164 195 66 377 54 L377 -30 L449 -30 L449 54 C630 66 781 164 781 349 L781 349 Z M119 349 C119 495 235 563 377 573 L377 125 C235 135 119 204 119 349 L119 349 Z M449 125 L449 573 C591 563 707 495 707 349 C707 204 591 135 449 125 L449 125 Z " />
<glyph glyph-name="uni0425" unicode="&#x425;" horiz-adv-x="624" d="M614 0 L356 359 L600 700 L511 700 L312 422 L113 700 L24 700 L267 359 L10 0 L99 0 L312 297 L525 0 L614 0 Z " />
<glyph glyph-name="uni0426" unicode="&#x426;" horiz-adv-x="691" d="M564 72 L564 700 L492 700 L492 72 L137 72 L137 700 L65 700 L65 0 L578 0 L578 -127 L651 -127 L651 72 L564 72 Z " />
<glyph glyph-name="uni0427" unicode="&#x427;" horiz-adv-x="608" d="M471 696 L471 381 C432 345 368 314 275 314 C168 314 117 379 117 502 L117 700 L45 700 L45 502 C45 324 129 242 275 242 C341 242 417 262 471 299 L471 -4 L543 -4 L543 696 L471 696 Z " />
<glyph glyph-name="uni0428" unicode="&#x428;" horiz-adv-x="960" d="M895 700 L823 700 L823 72 L516 72 L516 700 L444 700 L444 72 L137 72 L137 700 L65 700 L65 0 L895 0 L895 700 Z " />
<glyph glyph-name="uni0429" unicode="&#x429;" horiz-adv-x="1022" d="M896 72 L896 700 L824 700 L824 72 L517 72 L517 700 L445 700 L445 72 L138 72 L138 700 L65 700 L65 0 L910 0 L910 -127 L982 -127 L982 72 L896 72 Z " />
<glyph glyph-name="uni042A" unicode="&#x42a;" horiz-adv-x="659" d="M399 434 L209 434 L209 700 L10 700 L10 628 L137 628 L137 0 L399 0 C531 0 619 99 619 217 C619 335 526 434 399 434 L399 434 Z M399 72 L209 72 L209 362 L399 362 C488 362 544 295 544 217 C544 139 488 72 399 72 L399 72 Z " />
<glyph glyph-name="uni042B" unicode="&#x42b;" horiz-adv-x="782" d="M327 434 L137 434 L137 700 L65 700 L65 0 L327 0 C459 0 547 99 547 217 C547 335 455 434 327 434 L327 434 Z M327 72 L137 72 L137 362 L327 362 C416 362 472 295 472 217 C472 139 417 72 327 72 L327 72 Z M645 700 L645 0 L717 0 L717 700 L645 700 Z " />
<glyph glyph-name="uni042C" unicode="&#x42c;" horiz-adv-x="587" d="M327 434 L137 434 L137 700 L65 700 L65 0 L327 0 C458 0 547 99 547 217 C547 335 454 434 327 434 L327 434 Z M327 72 L137 72 L137 362 L327 362 C416 362 472 295 472 217 C472 139 416 72 327 72 L327 72 Z " />
<glyph glyph-name="uni042D" unicode="&#x42d;" horiz-adv-x="710" d="M320 706 C195 706 91 643 30 546 L94 515 C143 588 224 635 320 635 C465 635 573 527 589 386 L239 386 L239 314 L589 314 C573 173 465 64 320 64 C224 64 143 111 94 184 L30 152 C91 56 195 -7 320 -7 C517 -7 665 152 665 349 C665 546 517 706 320 706 L320 706 Z " />
<glyph glyph-name="uni042E" unicode="&#x42e;" horiz-adv-x="1011" d="M626 706 C442 706 305 566 288 386 L137 386 L137 700 L65 700 L65 0 L137 0 L137 314 L288 314 C304 133 441 -7 626 -7 C823 -7 966 152 966 349 C966 546 823 706 626 706 L626 706 Z M626 64 C468 64 361 191 361 349 C361 507 468 635 626 635 C784 635 892 507 892 349 C892 191 784 64 626 64 L626 64 Z " />
<glyph glyph-name="uni042F" unicode="&#x42f;" horiz-adv-x="590" d="M268 700 C136 700 48 601 48 483 C48 391 104 311 188 280 L30 0 L113 0 L263 266 C265 266 266 266 268 266 L458 266 L458 0 L530 0 L530 700 L268 700 Z M268 338 C179 338 123 405 123 483 C123 561 178 628 268 628 L458 628 L458 338 L268 338 Z " />
<glyph glyph-name="uni0430" unicode="&#x430;" horiz-adv-x="470" d="M425 0 C425 0 424 225 424 323 C424 425 359 489 247 489 C129 489 73 421 60 356 L124 341 C136 382 160 424 245 424 C337 424 354 371 355 338 C356 306 327 292 252 280 C104 256 30 213 30 118 C30 37 96 -7 185 -7 C254 -7 310 21 353 58 L353 0 L425 0 Z M191 61 C167 61 106 70 106 123 C106 176 158 197 262 214 C298 220 329 224 355 229 L355 207 C356 120 285 61 191 61 L191 61 Z " />
<glyph glyph-name="uni0431" unicode="&#x431;" horiz-adv-x="522" d="M267 482 C201 482 144 449 103 403 C117 489 156 571 259 626 C293 643 323 653 352 663 C396 676 433 690 472 725 L420 776 C397 753 369 744 330 731 C300 722 265 710 225 690 C33 588 28 344 39 220 C48 92 134 -7 264 -7 C402 -7 487 104 487 242 C487 379 404 482 267 482 L267 482 Z M264 63 C165 63 111 143 111 242 C111 341 168 412 267 412 C366 412 414 341 414 242 C414 143 363 63 264 63 L264 63 Z " />
<glyph glyph-name="uni0432" unicode="&#x432;" horiz-adv-x="474" d="M360 249 C388 273 410 306 410 343 C410 420 360 482 257 482 L55 482 L55 0 L286 0 C377 0 439 55 439 138 C439 196 405 232 360 249 L360 249 Z M257 410 C311 410 335 389 335 343 C335 298 302 277 257 277 C229 277 170 277 127 277 L127 410 C168 410 226 410 257 410 L257 410 Z M286 72 C256 72 178 72 127 72 L127 205 C164 205 247 205 286 205 C336 205 363 184 363 138 C363 93 331 72 286 72 L286 72 Z " />
<glyph glyph-name="uni0433" unicode="&#x433;" horiz-adv-x="387" d="M362 482 L55 482 L55 0 L127 0 L127 410 L362 410 L362 482 Z " />
<glyph glyph-name="uni0434" unicode="&#x434;" horiz-adv-x="554" d="M448 72 L448 482 L141 482 L141 472 C141 285 113 136 65 72 L15 72 L15 -119 L87 -119 L87 0 L446 0 L446 -119 L519 -119 L519 72 L448 72 Z M212 410 L375 410 L375 72 L149 72 C195 166 209 303 212 410 L212 410 Z " />
<glyph glyph-name="uni0435" unicode="&#x435;" horiz-adv-x="512" d="M259 489 C122 489 30 378 30 240 C30 103 128 -7 265 -7 C353 -7 421 36 461 104 L398 135 C369 90 325 63 265 63 C175 63 115 128 105 215 L476 215 C476 223 477 232 477 240 C477 378 397 489 259 489 L259 489 Z M259 419 C342 419 389 363 403 287 L108 287 C123 363 177 419 259 419 L259 419 Z " />
<glyph glyph-name="uni0436" unicode="&#x436;" horiz-adv-x="726" d="M622 0 L711 0 L502 288 L682 482 L583 482 L392 265 L392 482 L319 482 L319 265 L128 482 L30 482 L209 288 L0 0 L89 0 L259 234 L319 159 L319 0 L392 0 L392 159 L452 234 L622 0 Z " />
<glyph glyph-name="uni0437" unicode="&#x437;" horiz-adv-x="421" d="M287 247 C337 263 366 311 366 361 C366 430 304 489 208 489 C131 489 72 453 37 416 L83 370 C112 401 158 421 206 421 C260 421 294 394 294 352 C294 308 261 274 195 274 L148 274 L148 208 L209 208 C271 208 316 184 316 138 C316 86 263 58 202 58 C149 58 97 80 71 117 L15 82 C55 27 120 -7 207 -7 C315 -7 391 46 391 133 C391 196 344 239 287 247 L287 247 Z " />
<glyph glyph-name="uni0438" unicode="&#x438;" horiz-adv-x="504" d="M382 482 L128 124 L128 482 L55 482 L55 0 L122 0 L377 358 L377 0 L449 0 L449 482 L382 482 Z " />
<glyph glyph-name="uni0439" unicode="&#x439;" horiz-adv-x="504" d="M258 540 C331 540 389 598 389 671 L328 671 C328 631 298 601 258 601 C217 601 187 631 187 671 L127 671 C127 598 184 540 258 540 L258 540 Z M382 482 L128 124 L128 482 L55 482 L55 0 L122 0 L377 358 L377 0 L449 0 L449 482 L382 482 Z " />
<glyph glyph-name="uni043A" unicode="&#x43a;" horiz-adv-x="474" d="M370 0 L459 0 L250 288 L429 482 L331 482 L128 262 L128 482 L55 482 L55 0 L128 0 L128 156 L200 234 L370 0 Z " />
<glyph glyph-name="uni043B" unicode="&#x43b;" horiz-adv-x="474" d="M118 482 L118 458 C118 292 111 118 61 77 C54 71 43 65 19 69 L5 -2 C41 -7 76 -5 107 21 C172 74 188 204 190 410 L346 410 L346 0 L419 0 L419 482 L118 482 Z " />
<glyph glyph-name="uni043C" unicode="&#x43c;" horiz-adv-x="623" d="M502 482 L312 203 L122 482 L55 482 L55 0 L128 0 L128 354 L286 122 L337 122 L496 354 L496 0 L568 0 L568 482 L502 482 Z " />
<glyph glyph-name="uni043D" unicode="&#x43d;" horiz-adv-x="504" d="M377 482 L377 277 L128 277 L128 482 L55 482 L55 0 L128 0 L128 205 L377 205 L377 0 L449 0 L449 482 L377 482 Z " />
<glyph glyph-name="uni043E" unicode="&#x43e;" horiz-adv-x="537" d="M267 489 C130 489 35 378 35 240 C35 102 130 -8 267 -8 C405 -8 502 102 502 240 C502 378 405 489 267 489 L267 489 Z M267 63 C168 63 108 141 108 240 C108 339 168 419 267 419 C366 419 429 339 429 240 C429 141 366 63 267 63 L267 63 Z " />
<glyph glyph-name="uni043F" unicode="&#x43f;" horiz-adv-x="504" d="M55 482 L55 0 L127 0 L127 410 L376 410 L376 0 L449 0 L449 482 L55 482 Z " />
<glyph glyph-name="uni0440" unicode="&#x440;" horiz-adv-x="547" d="M286 489 C218 489 164 461 127 416 L127 482 L55 482 L55 -218 L127 -218 L127 65 C164 20 218 -8 286 -8 C424 -8 512 102 512 240 C512 378 424 489 286 489 L286 489 Z M286 63 C188 63 131 141 131 240 C131 339 188 419 286 419 C385 419 439 339 439 240 C439 141 385 63 286 63 L286 63 Z " />
<glyph glyph-name="uni0441" unicode="&#x441;" horiz-adv-x="485" d="M262 63 C163 63 103 141 103 240 C103 339 163 419 261 419 C321 419 368 390 397 346 L460 376 C420 444 349 489 261 489 C124 489 30 378 30 240 C30 103 124 -7 262 -7 C349 -7 420 36 460 104 L397 135 C368 90 321 63 262 63 L262 63 Z " />
<glyph glyph-name="uni0442" unicode="&#x442;" horiz-adv-x="443" d="M413 482 L30 482 L30 410 L185 410 L185 0 L257 0 L257 410 L413 410 L413 482 Z " />
<glyph glyph-name="uni0443" unicode="&#x443;" horiz-adv-x="448" d="M366 482 L229 101 L93 482 L15 482 L191 0 C143 -124 124 -143 56 -130 L43 -201 C101 -216 155 -207 193 -156 C221 -117 244 -63 274 15 L443 482 L366 482 Z " />
<glyph glyph-name="uni0444" unicode="&#x444;" horiz-adv-x="639" d="M609 242 C609 370 525 474 357 488 L357 700 L285 700 L285 488 C115 476 30 371 30 242 C30 113 115 6 285 -6 L285 -218 L357 -218 L357 -6 C525 8 609 113 609 242 L609 242 Z M103 242 C103 333 155 407 285 418 L285 64 C163 76 103 151 103 242 L103 242 Z M357 65 L357 417 C485 406 536 332 536 242 C536 152 477 77 357 65 L357 65 Z " />
<glyph glyph-name="uni0445" unicode="&#x445;" horiz-adv-x="455" d="M450 0 L272 248 L440 482 L350 482 L227 310 L104 482 L15 482 L183 248 L5 0 L94 0 L227 186 L361 0 L450 0 Z " />
<glyph glyph-name="uni0446" unicode="&#x446;" horiz-adv-x="546" d="M440 72 L440 482 L367 482 L367 72 L127 72 L127 482 L55 482 L55 0 L438 0 L438 -119 L511 -119 L511 72 L440 72 Z " />
<glyph glyph-name="uni0447" unicode="&#x447;" horiz-adv-x="477" d="M349 482 L349 256 C315 235 269 217 216 217 C142 217 117 264 117 336 L117 482 L45 482 L45 336 C45 226 89 150 219 150 C257 150 311 169 349 189 L349 0 L422 0 L422 482 L349 482 Z " />
<glyph glyph-name="uni0448" unicode="&#x448;" horiz-adv-x="724" d="M669 482 L596 482 L596 72 L398 72 L398 482 L326 482 L326 72 L127 72 L127 482 L55 482 L55 0 L669 0 L669 482 Z " />
<glyph glyph-name="uni0449" unicode="&#x449;" horiz-adv-x="775" d="M669 72 L669 482 L597 482 L597 72 L398 72 L398 482 L326 482 L326 72 L128 72 L128 482 L55 482 L55 0 L668 0 L668 -119 L740 -119 L740 72 L669 72 Z " />
<glyph glyph-name="uni044A" unicode="&#x44a;" horiz-adv-x="533" d="M328 312 L206 312 L206 482 L15 482 L15 409 L133 409 L133 0 L328 0 C421 0 498 58 498 156 C498 254 427 312 328 312 L328 312 Z M328 72 L206 72 L206 240 L328 240 C384 240 423 213 423 156 C423 99 383 72 328 72 L328 72 Z " />
<glyph glyph-name="uni044B" unicode="&#x44b;" horiz-adv-x="613" d="M485 482 L485 0 L558 0 L558 482 L485 482 Z M239 312 L117 312 L117 482 L45 482 L45 0 L239 0 C332 0 410 58 410 156 C410 254 339 312 239 312 L239 312 Z M239 72 L117 72 L117 240 L239 240 C296 240 335 213 335 156 C335 99 295 72 239 72 L239 72 Z " />
<glyph glyph-name="uni044C" unicode="&#x44c;" horiz-adv-x="445" d="M240 312 L118 312 L118 482 L45 482 L45 0 L240 0 C333 0 410 58 410 156 C410 254 339 312 240 312 L240 312 Z M240 72 L118 72 L118 240 L240 240 C296 240 335 213 335 156 C335 99 295 72 240 72 L240 72 Z " />
<glyph glyph-name="uni044D" unicode="&#x44d;" horiz-adv-x="486" d="M219 489 C131 489 60 446 20 378 L83 347 C112 392 159 419 219 419 C305 419 362 359 375 277 L156 277 L156 205 L375 205 C362 123 305 62 219 62 C159 62 112 92 83 136 L20 105 C60 37 131 -8 219 -8 C356 -8 451 104 451 242 C451 379 356 489 219 489 L219 489 Z " />
<glyph glyph-name="uni044E" unicode="&#x44e;" horiz-adv-x="724" d="M454 489 C328 489 239 397 224 277 L128 277 L128 482 L55 482 L55 0 L128 0 L128 205 L224 205 C239 84 328 -8 454 -8 C591 -8 689 103 689 241 C689 378 591 489 454 489 L454 489 Z M454 62 C355 62 295 142 295 241 C295 340 355 419 454 419 C553 419 616 340 616 241 C616 142 553 62 454 62 L454 62 Z " />
<glyph glyph-name="uni044F" unicode="&#x44f;" horiz-adv-x="451" d="M202 482 C109 482 31 424 31 326 C31 258 65 209 120 185 L15 0 L98 0 L194 170 C196 169 199 169 202 169 L324 169 L324 0 L396 0 L396 482 L202 482 Z M202 242 C145 242 106 269 106 326 C106 382 146 409 202 409 L324 409 L324 242 L202 242 Z " />
<glyph glyph-name="uni0451" unicode="&#x451;" horiz-adv-x="512" d="M163 558 C186 558 204 576 204 598 C204 621 186 639 163 639 C141 639 123 621 123 598 C123 576 141 558 163 558 L163 558 Z M346 558 C368 558 386 576 386 598 C386 621 368 639 346 639 C324 639 306 621 306 598 C306 576 324 558 346 558 L346 558 Z M259 489 C122 489 30 378 30 240 C30 103 128 -7 265 -7 C353 -7 421 36 461 104 L398 135 C369 90 325 63 265 63 C175 63 115 128 105 215 L476 215 C476 223 477 232 477 240 C477 378 397 489 259 489 L259 489 Z M259 419 C342 419 389 363 403 287 L108 287 C123 363 177 419 259 419 L259 419 Z " />
<glyph glyph-name="uni0452" unicode="&#x452;" horiz-adv-x="526" d="M293 489 C235 489 187 465 154 426 L154 554 L248 554 L248 626 L154 626 L154 700 L81 700 L81 626 L10 626 L10 554 L81 554 L81 0 L154 0 L154 260 C154 366 208 417 282 417 C360 417 404 371 404 266 L404 -39 C404 -79 401 -102 384 -117 C369 -130 337 -132 308 -107 L267 -161 C302 -189 343 -202 375 -199 C437 -192 476 -153 476 -42 L476 266 C476 443 389 489 293 489 L293 489 Z " />
<glyph glyph-name="uni0453" unicode="&#x453;" horiz-adv-x="387" d="M362 482 L55 482 L55 0 L127 0 L127 410 L362 410 L362 482 Z M264 700 L186 563 L241 563 L340 700 L264 700 Z " />
<glyph glyph-name="uni0454" unicode="&#x454;" horiz-adv-x="480" d="M257 63 C171 63 114 124 101 205 L320 205 L320 277 L101 277 C113 359 170 419 257 419 C316 419 364 392 392 347 L455 378 C415 446 344 489 257 489 C119 489 25 379 25 242 C25 104 119 -7 257 -7 C344 -7 415 38 455 106 L392 136 C364 92 316 63 257 63 L257 63 Z " />
<glyph glyph-name="uni0455" unicode="&#x455;" horiz-adv-x="426" d="M222 278 C152 294 108 305 102 343 C95 382 128 419 198 417 C252 415 288 394 300 359 L367 385 C345 448 281 489 197 489 C90 489 18 417 30 331 C44 241 136 222 208 208 C293 190 318 175 318 137 C318 78 255 64 215 64 C151 64 106 89 91 132 L25 105 C51 38 122 -8 215 -8 C302 -8 391 36 391 137 C391 229 303 261 222 278 L222 278 Z " />
<glyph glyph-name="uni0456" unicode="&#x456;" horiz-adv-x="191" d="M59 0 L132 0 L132 482 L59 482 L59 0 Z M95 574 C118 574 136 592 136 614 C136 637 118 655 95 655 C73 655 55 637 55 614 C55 592 73 574 95 574 L95 574 Z " />
<glyph glyph-name="uni0457" unicode="&#x457;" horiz-adv-x="196" d="M65 0 L138 0 L138 482 L65 482 L65 0 Z M26 679 C4 679 -15 661 -15 638 C-15 616 4 598 26 598 C48 598 66 616 66 638 C66 661 48 679 26 679 L26 679 Z M177 679 C155 679 137 661 137 638 C137 616 155 598 177 598 C200 598 218 616 218 638 C218 661 200 679 177 679 L177 679 Z " />
<glyph glyph-name="uni0458" unicode="&#x458;" horiz-adv-x="204" d="M108 574 C131 574 149 592 149 614 C149 637 131 655 108 655 C86 655 68 637 68 614 C68 592 86 574 108 574 L108 574 Z M72 -65 C72 -105 70 -128 52 -143 C37 -156 6 -158 -24 -132 L-65 -187 C-30 -215 12 -228 43 -225 C106 -217 145 -179 145 -67 C145 20 145 482 145 482 L72 482 C72 482 72 5 72 -65 L72 -65 Z " />
<glyph glyph-name="uni0459" unicode="&#x459;" horiz-adv-x="744" d="M538 312 L419 312 L419 482 L118 482 L118 458 C118 292 111 118 62 77 C55 71 43 65 19 69 L5 -2 C42 -7 77 -5 108 21 C172 74 188 204 190 409 L347 409 L347 0 L538 0 C631 0 709 58 709 156 C709 254 637 312 538 312 L538 312 Z M538 72 L419 72 L419 240 L538 240 C595 240 634 213 634 156 C634 99 594 72 538 72 L538 72 Z " />
<glyph glyph-name="uni045A" unicode="&#x45a;" horiz-adv-x="770" d="M564 277 L448 277 L448 482 L376 482 L376 277 L127 277 L127 482 L55 482 L55 0 L127 0 L127 205 L376 205 L376 0 L564 0 C657 0 735 41 735 139 C735 237 664 277 564 277 L564 277 Z M564 72 L448 72 L448 205 L564 205 C621 205 660 195 660 139 C660 82 620 72 564 72 L564 72 Z " />
<glyph glyph-name="uni045B" unicode="&#x45b;" horiz-adv-x="532" d="M299 489 C240 489 193 465 159 426 L159 554 L253 554 L253 626 L159 626 L159 700 L87 700 L87 626 L15 626 L15 554 L87 554 L87 0 L159 0 L159 260 C159 366 213 417 287 417 C365 417 409 371 409 266 C409 193 409 0 409 0 L482 0 C482 0 482 105 482 266 C482 443 394 489 299 489 L299 489 Z " />
<glyph glyph-name="uni045C" unicode="&#x45c;" horiz-adv-x="474" d="M370 0 L459 0 L250 288 L429 482 L331 482 L128 262 L128 482 L55 482 L55 0 L128 0 L128 156 L200 234 L370 0 Z M284 700 L206 563 L261 563 L360 700 L284 700 Z " />
<glyph glyph-name="uni045E" unicode="&#x45e;" horiz-adv-x="443" d="M361 482 L224 101 L88 482 L10 482 L186 0 C138 -124 119 -143 51 -130 L38 -201 C96 -216 150 -207 188 -156 C216 -117 239 -63 269 15 L438 482 L361 482 Z M282 700 C282 660 259 630 224 630 C187 630 166 660 166 700 L103 700 C103 627 150 569 224 569 C297 569 345 627 345 700 L282 700 Z " />
<glyph glyph-name="uni045F" unicode="&#x45f;" horiz-adv-x="501" d="M374 482 L374 72 L128 72 L128 482 L55 482 L55 0 L214 0 L214 -119 L287 -119 L287 0 L446 0 L446 482 L374 482 Z " />
<glyph glyph-name="uni0490" unicode="&#x490;" horiz-adv-x="461" d="M369 827 L369 700 L65 700 L65 0 L137 0 L137 627 L441 627 L441 827 L369 827 Z " />
<glyph glyph-name="uni0491" unicode="&#x491;" horiz-adv-x="387" d="M290 600 L290 482 L55 482 L55 0 L128 0 L128 409 L362 409 L362 600 L290 600 Z " />
<glyph glyph-name="Wgrave" unicode="&#x1e80;" horiz-adv-x="999" d="M901 700 L715 119 L536 700 L466 700 L287 119 L101 700 L20 700 L249 0 L322 0 L501 582 L680 0 L753 0 L979 700 L901 700 Z M448 900 L372 900 L471 763 L526 763 L448 900 Z " />
<glyph glyph-name="wgrave" unicode="&#x1e81;" horiz-adv-x="710" d="M630 482 L511 117 L390 482 L320 482 L199 117 L81 482 L5 482 L161 0 L234 0 L355 365 L476 0 L549 0 L705 482 L630 482 Z M304 700 L228 700 L327 563 L382 563 L304 700 Z " />
<glyph glyph-name="Wacute" unicode="&#x1e82;" horiz-adv-x="999" d="M901 700 L715 119 L536 700 L466 700 L287 119 L101 700 L20 700 L249 0 L322 0 L501 582 L680 0 L753 0 L979 700 L901 700 Z M560 900 L482 763 L537 763 L636 900 L560 900 Z " />
<glyph glyph-name="wacute" unicode="&#x1e83;" horiz-adv-x="710" d="M630 482 L511 117 L390 482 L320 482 L199 117 L81 482 L5 482 L161 0 L234 0 L355 365 L476 0 L549 0 L705 482 L630 482 Z M416 700 L338 563 L393 563 L492 700 L416 700 Z " />
<glyph glyph-name="Wdieresis" unicode="&#x1e84;" horiz-adv-x="999" d="M901 700 L715 119 L536 700 L466 700 L287 119 L101 700 L20 700 L249 0 L322 0 L501 582 L680 0 L753 0 L979 700 L901 700 Z M424 879 C402 879 383 861 383 838 C383 816 402 798 424 798 C446 798 464 816 464 838 C464 861 446 879 424 879 L424 879 Z M575 879 C553 879 535 861 535 838 C535 816 553 798 575 798 C598 798 616 816 616 838 C616 861 598 879 575 879 L575 879 Z " />
<glyph glyph-name="wdieresis" unicode="&#x1e85;" horiz-adv-x="710" d="M630 482 L511 117 L390 482 L320 482 L199 117 L81 482 L5 482 L161 0 L234 0 L355 365 L476 0 L549 0 L705 482 L630 482 Z M280 679 C258 679 239 661 239 638 C239 616 258 598 280 598 C302 598 320 616 320 638 C320 661 302 679 280 679 L280 679 Z M431 679 C409 679 391 661 391 638 C391 616 409 598 431 598 C454 598 472 616 472 638 C472 661 454 679 431 679 L431 679 Z " />
<glyph glyph-name="Germandbl" unicode="&#x1e9e;" horiz-adv-x="561" d="M328 441 L451 628 L451 700 L271 700 C130 700 65 633 65 472 L65 0 L138 0 L138 472 C138 588 171 628 271 628 L375 628 L255 447 L255 381 C371 381 449 321 449 226 C449 111 348 65 255 65 L255 -7 C392 -8 521 64 521 226 C521 327 456 416 328 441 L328 441 Z " />
<glyph glyph-name="Ygrave" unicode="&#x1ef2;" horiz-adv-x="559" d="M559 700 L476 700 L279 349 L83 700 L0 700 L243 265 L243 0 L316 0 L316 266 L559 700 Z M229 900 L153 900 L252 763 L307 763 L229 900 Z " />
<glyph glyph-name="ygrave" unicode="&#x1ef3;" horiz-adv-x="443" d="M361 482 L224 101 L88 482 L10 482 L186 0 C138 -124 119 -143 51 -130 L38 -201 C96 -216 150 -207 188 -156 C216 -117 239 -63 269 15 L438 482 L361 482 Z M183 700 L107 700 L206 563 L261 563 L183 700 Z " />
<glyph glyph-name="endash" unicode="&#x2013;" horiz-adv-x="528" d="M70 342 L70 270 L458 270 L458 342 L70 342 Z " />
<glyph glyph-name="emdash" unicode="&#x2014;" horiz-adv-x="615" d="M70 342 L70 270 L545 270 L545 342 L70 342 Z " />
<glyph glyph-name="quoteleft" unicode="&#x2018;" horiz-adv-x="186" d="M40 538 L115 538 L156 706 L109 706 L40 538 Z " />
<glyph glyph-name="quoteright" unicode="&#x2019;" horiz-adv-x="186" d="M40 538 L87 538 L156 706 L80 706 L40 538 Z " />
<glyph glyph-name="quotesinglbase" unicode="&#x201a;" horiz-adv-x="176" d="M30 -158 L77 -158 L146 10 L70 10 L30 -158 Z " />
<glyph glyph-name="quotedblleft" unicode="&#x201c;" horiz-adv-x="305" d="M229 706 L159 538 L235 538 L275 706 L229 706 Z M40 538 L115 538 L156 706 L109 706 L40 538 Z " />
<glyph glyph-name="quotedblright" unicode="&#x201d;" horiz-adv-x="306" d="M40 538 L87 538 L156 706 L80 706 L40 538 Z M200 706 L159 538 L206 538 L276 706 L200 706 Z " />
<glyph glyph-name="quotedblbase" unicode="&#x201e;" horiz-adv-x="296" d="M30 -158 L77 -158 L146 10 L70 10 L30 -158 Z M190 10 L149 -158 L196 -158 L266 10 L190 10 Z " />
<glyph glyph-name="dagger" unicode="&#x2020;" horiz-adv-x="439" d="M399 528 L255 528 L255 700 L183 700 L183 528 L40 528 L40 455 L183 455 L183 0 L255 0 L255 455 L399 455 L399 528 Z " />
<glyph glyph-name="daggerdbl" unicode="&#x2021;" horiz-adv-x="439" d="M399 455 L399 528 L256 528 L256 700 L184 700 L184 528 L40 528 L40 455 L184 455 L184 245 L40 245 L40 172 L184 172 L184 0 L256 0 L256 172 L399 172 L399 245 L256 245 L256 455 L399 455 Z " />
<glyph glyph-name="ellipsis" unicode="&#x2026;" horiz-adv-x="531" d="M100 68 C78 68 60 50 60 28 C60 5 78 -13 100 -13 C123 -13 141 5 141 28 C141 50 123 68 100 68 L100 68 Z M270 68 C248 68 230 50 230 28 C230 5 248 -13 270 -13 C293 -13 311 5 311 28 C311 50 293 68 270 68 L270 68 Z M440 68 C418 68 400 50 400 28 C400 5 418 -13 440 -13 C463 -13 481 5 481 28 C481 50 463 68 440 68 L440 68 Z " />
<glyph glyph-name="perthousand" unicode="&#x2030;" horiz-adv-x="1096" d="M544 700 L107 0 L192 0 L630 700 L544 700 Z M333 554 C333 641 265 706 182 706 C98 706 30 641 30 554 C30 468 98 403 182 403 C265 403 333 468 333 554 L333 554 Z M97 554 C97 604 135 639 182 639 C228 639 266 604 266 554 C266 504 228 469 182 469 C135 469 97 504 97 554 L97 554 Z M553 295 C469 295 401 231 401 144 C401 57 469 -7 553 -7 C636 -7 704 57 704 144 C704 231 636 295 553 295 L553 295 Z M553 59 C506 59 468 94 468 144 C468 194 506 229 553 229 C599 229 637 194 637 144 C637 94 599 59 553 59 L553 59 Z M915 295 C831 295 763 231 763 144 C763 57 831 -7 915 -7 C998 -7 1066 57 1066 144 C1066 231 998 295 915 295 L915 295 Z M915 59 C868 59 830 94 830 144 C830 194 868 229 915 229 C961 229 999 194 999 144 C999 94 961 59 915 59 L915 59 Z " />
<glyph glyph-name="guilsinglleft" unicode="&#x2039;" horiz-adv-x="340" d="M270 425 L181 425 L70 268 L181 110 L270 110 L158 268 L270 425 Z " />
<glyph glyph-name="guilsinglright" unicode="&#x203a;" horiz-adv-x="340" d="M158 425 L70 425 L181 268 L70 110 L158 110 L270 268 L158 425 Z " />
<glyph glyph-name="Euro" unicode="&#x20ac;" horiz-adv-x="803" d="M474 64 C350 64 254 142 218 252 L504 252 L544 324 L203 324 C203 332 202 341 202 349 C202 358 203 366 203 374 L572 374 L612 447 L218 447 C254 556 350 635 474 635 C570 635 650 587 699 515 L763 546 C702 642 598 706 474 706 C310 706 181 596 141 447 L80 447 L40 374 L129 374 C129 366 128 358 128 349 C128 341 129 332 129 324 L80 324 L40 252 L141 252 C181 102 310 -7 474 -7 C598 -7 702 56 763 152 L699 184 C650 111 570 64 474 64 L474 64 Z " />
<glyph glyph-name="ruble" unicode="&#x20bd;" horiz-adv-x="640" d="M380 266 C507 266 600 365 600 483 C600 601 511 700 380 700 L117 700 L117 338 L30 338 L30 266 L117 266 L117 203 L30 203 L30 130 L117 130 L117 0 L190 0 L190 130 L432 130 L432 203 L190 203 L190 266 L380 266 Z M190 627 L380 627 C469 627 524 561 524 483 C524 405 468 338 380 338 L190 338 L190 627 Z " />
<glyph glyph-name="uni2116" unicode="&#x2116;" horiz-adv-x="1026" d="M695 274 L978 274 L978 346 L695 346 L695 274 Z M525 133 L131 700 L65 700 L65 0 L137 0 L137 569 L531 0 L597 0 L597 700 L525 700 L525 133 Z M835 403 C918 403 986 468 986 554 C986 641 918 706 835 706 C751 706 683 641 683 554 C683 468 751 403 835 403 L835 403 Z M835 639 C881 639 919 604 919 554 C919 504 881 469 835 469 C788 469 750 504 750 554 C750 604 788 639 835 639 L835 639 Z " />
<glyph glyph-name="minus" unicode="&#x2212;" horiz-adv-x="528" d="M70 342 L70 270 L458 270 L458 342 L70 342 Z " />
<glyph glyph-name="approxequal" unicode="&#x2248;" horiz-adv-x="595" d="M456 267 C443 243 425 229 392 232 C367 234 343 244 318 257 C288 273 251 289 208 289 C129 289 94 242 71 200 L142 177 C158 202 179 219 210 220 C234 220 259 206 285 193 C316 177 362 161 392 159 C463 157 505 202 525 245 L456 267 Z M209 381 C234 381 258 367 284 354 C315 338 361 322 391 321 C462 318 504 364 524 406 L455 428 C442 404 425 390 391 393 C367 395 342 405 317 418 C287 434 250 450 207 450 C128 450 93 403 70 361 L141 339 C157 363 179 380 209 381 L209 381 Z " />
<glyph glyph-name="notequal" unicode="&#x2260;" horiz-adv-x="528" d="M458 347 L458 420 L370 420 L429 528 L347 529 L287 420 L70 420 L70 347 L247 347 L198 256 L70 256 L70 184 L158 184 L99 76 L181 76 L240 184 L458 184 L458 256 L280 256 L330 347 L458 347 Z " />
<glyph glyph-name="lessequal" unicode="&#x2264;" horiz-adv-x="482" d="M412 551 L70 385 L70 304 L412 137 L412 218 L152 344 L412 470 L412 551 Z M70 19 L412 20 L412 92 L70 91 L70 19 Z " />
<glyph glyph-name="greaterequal" unicode="&#x2265;" horiz-adv-x="483" d="M70 19 L413 20 L413 92 L70 91 L70 19 Z M70 551 L70 470 L331 344 L70 218 L70 137 L413 304 L413 385 L70 551 Z " />
<glyph glyph-name="commaaccent" unicode="&#xf6c3;" horiz-adv-x="205" d="M82 -51 L50 -183 L100 -183 L155 -51 L82 -51 Z " />
</font>
</svg>
